<svg xmlns="http://www.w3.org/2000/svg" xmlns:xlink="http://www.w3.org/1999/xlink" viewBox="0 0 450.57 493.65"><defs><style>.cls-1,.cls-10,.cls-21,.cls-25,.cls-26,.cls-27,.cls-6{fill:none;}.cls-2{isolation:isolate;}.cls-3{fill:#c6c5f0;}.cls-24,.cls-4{fill:#8c9ef2;}.cls-4{opacity:0.38;}.cls-28,.cls-5{fill:#e5ebfc;}.cls-25,.cls-26,.cls-27,.cls-6{stroke:#fff;}.cls-10,.cls-21,.cls-6{stroke-miterlimit:10;}.cls-7{fill:#ccd7f2;}.cls-28,.cls-7{mix-blend-mode:multiply;}.cls-8{fill:#fff;}.cls-9{fill:#737072;}.cls-10{stroke:#e5ebfc;stroke-width:2px;}.cls-11{fill:#efd18f;}.cls-12{font-size:13.87px;font-family:Montserrat-Bold, Montserrat;font-weight:700;}.cls-12,.cls-20{fill:#fec949;}.cls-13{letter-spacing:-0.02em;}.cls-14{letter-spacing:-0.01em;}.cls-15{letter-spacing:0em;}.cls-16{clip-path:url(#clip-path);}.cls-17{fill:#ffc4c2;}.cls-18{fill:#ffadaa;}.cls-19{fill:#232323;}.cls-21{stroke:#cc9d33;stroke-width:3.29px;}.cls-22{fill:#6d80d9;}.cls-23{fill:#5868b0;}.cls-25,.cls-26,.cls-27{stroke-linecap:round;stroke-linejoin:round;}.cls-25{stroke-width:0.97px;}.cls-26{stroke-width:1.4px;}.cls-27{stroke-width:1.34px;}</style><clipPath id="clip-path" transform="translate(-24.86 -31.66)"><path class="cls-1" d="M440.77,278.3c-7-17.81-9.79-35.4-4.53-57.75,4.28-18.18,11-36,12.18-54.59,7.1-108.57-58-141.49-135-115.58-24.66,8.31-79.22,24.87-105.76,26.88C158.88,81,127.21,65.58,99.16,65.17c-49.9-.73-92.88,67-66,111.77,8.72,14.53,14.57,31.72,25.79,44.42,23.75,26.88,9.26,65.1.18,100-5.68,21.88-18.61,45.33-6,78.3,3.09,8.1,12.82,13.63,15.67,21.23,10.3,27.5,36.47,46.63,69.11,47.38,43.9,1,81.28-25.78,120.45-41.49C277.68,419,298,413.61,319,415.47c25.17,2.23,47.82,15,73.43,16.38,32.39,1.69,65.83-14.69,77.62-46.24,10.67-28.59-2.64-55.21-16.1-80.1A254.41,254.41,0,0,1,440.77,278.3Z"/></clipPath></defs><title>3958831</title><g class="cls-2"><g id="OBJECTS"><path class="cls-3" d="M440.77,278.3c-7-17.81-9.79-35.4-4.53-57.75,4.28-18.18,11-36,12.18-54.59,7.1-108.57-58-141.49-135-115.58-24.66,8.31-79.22,24.87-105.76,26.88C158.88,81,127.21,65.58,99.16,65.17c-49.9-.73-92.88,67-66,111.77,8.72,14.53,14.57,31.72,25.79,44.42,23.75,26.88,32.49,62.32,23.41,97.27C76.64,340.5,67.45,361.57,64.63,384c-5.76,45.9,27.33,83.25,73.21,84.31,43.9,1,81.28-25.78,120.45-41.49C277.68,419,298,413.61,319,415.47c25.17,2.23,47.82,15,73.43,16.38,32.39,1.69,65.83-14.69,77.62-46.24,10.67-28.59-2.64-55.21-16.1-80.1A254.41,254.41,0,0,1,440.77,278.3Z" transform="translate(-24.86 -31.66)"/><path class="cls-4" d="M440.77,278.3c-5.08-12.82-7.9-25.53-7.13-40a47.22,47.22,0,0,0-6.42,29c1.5,15,9.41,28.18,16.22,41.29,6.55,12.63,12.17,26.08,11.14,40.61-.95,13.33-6.41,26.27-16,35.68-16.07,15.84-39,20.75-58.93,29.87-6.25,2.86-12.71,6.29-17.7,11.16,9.9,2.89,19.93,5.38,30.45,5.93,32.39,1.69,65.83-14.69,77.62-46.24,10.67-28.59-2.64-55.21-16.1-80.1A254.41,254.41,0,0,1,440.77,278.3Z" transform="translate(-24.86 -31.66)"/><ellipse class="cls-5" cx="96.16" cy="31.34" rx="52.14" ry="18.66"/><path class="cls-6" d="M173.13,62.55C148.51,84.39,78.81,71,82.78,50.32" transform="translate(-24.86 -31.66)"/><ellipse class="cls-5" cx="398.13" cy="68.84" rx="52.14" ry="18.66"/><path class="cls-6" d="M475.1,100.05c-24.62,21.84-94.32,8.41-90.35-12.23" transform="translate(-24.86 -31.66)"/><ellipse class="cls-5" cx="302.57" cy="18.66" rx="52.14" ry="18.66"/><path class="cls-6" d="M379.54,49.87c-18.93-11.29-44.12-15.36-90.35-12.23,0,0,49.09-4.54,78.27,25.46" transform="translate(-24.86 -31.66)"/><path class="cls-7" d="M393.86,312.42,393.81,93a8.9,8.9,0,0,0-8.91-8.9H362.76l-288.85.07H48.29a8.9,8.9,0,0,0-8.9,8.9l0,219.44a8.9,8.9,0,0,0,8.91,8.9L385,321.33A8.91,8.91,0,0,0,393.86,312.42Z" transform="translate(-24.86 -31.66)"/><path class="cls-8" d="M389.89,317.43l-336.62.08a8.9,8.9,0,0,1-8.9-8.9l0-219.44a8.9,8.9,0,0,1,8.9-8.91l336.61-.08a8.91,8.91,0,0,1,8.91,8.9l.05,219.45A8.9,8.9,0,0,1,389.89,317.43Z" transform="translate(-24.86 -31.66)"/><rect class="cls-9" x="27.69" y="91.12" width="341.31" height="1.13"/><line class="cls-10" x1="306.49" y1="108.1" x2="361.96" y2="108.1"/><line class="cls-10" x1="306.49" y1="130.9" x2="361.96" y2="130.9"/><line class="cls-10" x1="306.49" y1="153.7" x2="361.96" y2="153.7"/><line class="cls-10" x1="306.49" y1="176.5" x2="361.96" y2="176.5"/><line class="cls-10" x1="306.49" y1="199.3" x2="361.96" y2="199.3"/><line class="cls-10" x1="306.49" y1="222.1" x2="361.96" y2="222.1"/><line class="cls-10" x1="306.49" y1="244.9" x2="361.96" y2="244.9"/><line class="cls-10" x1="306.49" y1="267.7" x2="361.96" y2="267.7"/><rect class="cls-5" x="146.53" y="144.93" width="24.76" height="23.26"/><rect class="cls-5" x="146.53" y="170.54" width="24.76" height="23.26"/><rect class="cls-5" x="146.54" y="196.15" width="24.76" height="23.26"/><rect class="cls-5" x="106.92" y="144.94" width="24.76" height="23.26"/><rect class="cls-5" x="106.92" y="170.55" width="24.76" height="23.26"/><rect class="cls-5" x="106.93" y="196.16" width="24.76" height="23.26"/><rect class="cls-5" x="67.31" y="144.95" width="24.76" height="23.26"/><rect class="cls-5" x="146.52" y="119.31" width="24.76" height="23.26"/><rect class="cls-5" x="106.91" y="119.32" width="24.76" height="23.26"/><rect class="cls-5" x="67.3" y="119.33" width="24.76" height="23.26"/><rect class="cls-5" x="67.32" y="170.56" width="24.76" height="23.26"/><rect class="cls-5" x="67.32" y="196.18" width="24.76" height="23.26"/><rect class="cls-5" x="67.33" y="221.79" width="24.76" height="23.26"/><rect class="cls-5" x="27.7" y="144.96" width="24.76" height="23.26"/><rect class="cls-5" x="27.69" y="119.34" width="24.76" height="23.26"/><rect class="cls-5" x="27.71" y="170.57" width="24.76" height="23.26"/><rect class="cls-5" x="27.71" y="196.19" width="24.76" height="23.26"/><rect class="cls-5" x="27.72" y="221.8" width="24.76" height="23.26"/><rect class="cls-5" x="186.13" y="119.3" width="24.76" height="23.26"/><rect class="cls-5" x="186.14" y="144.92" width="24.76" height="23.26"/><rect class="cls-5" x="186.14" y="170.53" width="24.76" height="23.26"/><rect class="cls-5" x="186.15" y="196.14" width="24.76" height="23.26"/><rect class="cls-11" x="225.74" y="119.29" width="24.76" height="23.26"/><rect class="cls-5" x="225.74" y="144.91" width="24.76" height="23.26"/><rect class="cls-5" x="225.75" y="170.52" width="24.76" height="23.26"/><rect class="cls-5" x="225.76" y="196.13" width="24.76" height="23.26"/><rect class="cls-5" x="265.35" y="119.28" width="24.76" height="23.26"/><rect class="cls-5" x="265.35" y="144.9" width="24.76" height="23.26"/><rect class="cls-5" x="265.36" y="170.51" width="24.76" height="23.26"/><rect class="cls-5" x="265.37" y="196.12" width="24.76" height="23.26"/><path class="cls-11" d="M63.73,132.69a.74.74,0,0,0-.28.61.68.68,0,0,0,.34.6,6.19,6.19,0,0,0,1.58.53,4.52,4.52,0,0,1,1.93.92,2.27,2.27,0,0,1,.68,1.78,2.37,2.37,0,0,1-.87,1.9,3.55,3.55,0,0,1-2.31.73,5.37,5.37,0,0,1-3.73-1.53l1.16-1.42a4.14,4.14,0,0,0,2.6,1.23,1.43,1.43,0,0,0,.85-.23.77.77,0,0,0,.3-.63.74.74,0,0,0-.32-.62,4.25,4.25,0,0,0-1.29-.46,5.82,5.82,0,0,1-2.22-.94,2.61,2.61,0,0,1,.19-3.74,3.62,3.62,0,0,1,2.22-.67,5.31,5.31,0,0,1,1.74.3,4.6,4.6,0,0,1,1.52.85l-1,1.42a3.81,3.81,0,0,0-2.34-.86A1.2,1.2,0,0,0,63.73,132.69Z" transform="translate(-24.86 -31.66)"/><path class="cls-9" d="M108.43,134.16l-2.36,4.76h-1.15l-2.34-4.75v5.48h-1.94v-8.71h2.63l2.24,4.78,2.26-4.78h2.61v8.7h-1.94Z" transform="translate(-24.86 -31.66)"/><path class="cls-9" d="M145,132.61v7h-1.94v-7h-2.46v-1.68h6.88v1.68Z" transform="translate(-24.86 -31.66)"/><path class="cls-9" d="M182.32,135.93l1.54-5h2l1.54,5,1.72-5h2.11l-3,8.7h-1.44l-1.91-6.05L183,139.63h-1.44l-3-8.71h2.11Z" transform="translate(-24.86 -31.66)"/><path class="cls-9" d="M224.49,132.59v7h-1.94v-7h-2.47v-1.68H227v1.68Z" transform="translate(-24.86 -31.66)"/><path class="cls-9" d="M266.59,130.9v1.71h-4v1.88h3.83v1.7h-3.83v3.42h-1.95V130.9Z" transform="translate(-24.86 -31.66)"/><path class="cls-9" d="M302.1,132.63a.74.74,0,0,0-.28.61.68.68,0,0,0,.34.6,6,6,0,0,0,1.58.53,4.31,4.31,0,0,1,1.92.92,2.24,2.24,0,0,1,.69,1.78,2.35,2.35,0,0,1-.88,1.9,3.51,3.51,0,0,1-2.31.72,5.33,5.33,0,0,1-3.72-1.53l1.16-1.42a4.08,4.08,0,0,0,2.6,1.24,1.38,1.38,0,0,0,.84-.23.78.78,0,0,0,.31-.63.74.74,0,0,0-.33-.62,4.27,4.27,0,0,0-1.28-.47,5.46,5.46,0,0,1-2.22-.94,2.2,2.2,0,0,1-.71-1.81,2.28,2.28,0,0,1,.89-1.92,3.64,3.64,0,0,1,2.22-.67,5.37,5.37,0,0,1,1.75.3,4.6,4.6,0,0,1,1.52.85l-1,1.42a3.77,3.77,0,0,0-2.34-.86A1.11,1.11,0,0,0,302.1,132.63Z" transform="translate(-24.86 -31.66)"/><text class="cls-12" transform="translate(28.95 83.57) rotate(-0.01)">N<tspan class="cls-13" x="11.21" y="0">O</tspan><tspan class="cls-14" x="22.6" y="0">V</tspan><tspan class="cls-15" x="32.74" y="0">EMBER</tspan></text><path class="cls-11" d="M61,157.5l4.29,0-.06,10.58-2.27,0,.05-8.56H61Z" transform="translate(-24.86 -31.66)"/><path class="cls-9" d="M105.68,161.85a1.88,1.88,0,0,0,.41-1.09,1.24,1.24,0,0,0-.34-.89,1.26,1.26,0,0,0-.89-.36c-.67,0-1.3.47-1.9,1.41l-1.89-1.12a5.83,5.83,0,0,1,1.64-1.73,3.93,3.93,0,0,1,2.26-.58,3.63,3.63,0,0,1,2.4.88,2.92,2.92,0,0,1,1,2.37,3.2,3.2,0,0,1-.42,1.56,10.14,10.14,0,0,1-1.55,1.91l-1.92,2,4.18,0v2.12l-7.46,0v-1.75l3.12-3.16A11.91,11.91,0,0,0,105.68,161.85Z" transform="translate(-24.86 -31.66)"/><path class="cls-9" d="M141,159.93v-2l6.47,0v1.63L145.27,162a3.1,3.1,0,0,1,2,1.07,3,3,0,0,1,.68,2,3.2,3.2,0,0,1-1.14,2.6,4.28,4.28,0,0,1-2.88.93,6.21,6.21,0,0,1-3.55-1.25l1-1.87a4.89,4.89,0,0,0,2.68,1.07,1.91,1.91,0,0,0,1.17-.34,1.3,1.3,0,0,0-.06-2,2.48,2.48,0,0,0-1.46-.4,5,5,0,0,0-1.41.28v-1.74l2-2.38Z" transform="translate(-24.86 -31.66)"/><path class="cls-9" d="M184.1,164.14V162.3h2.27v1.84h1.2v2h-1.2v2.52h-2.27v-2.53l-4.25,0v-1.8l3.8-6.22h2.57l-3.61,6Z" transform="translate(-24.86 -31.66)"/><path class="cls-9" d="M226.49,158.36v2l-4.17,0v1.77a3.87,3.87,0,0,1,1.07-.13A4,4,0,0,1,226,163a3.1,3.1,0,0,1,1.09,2.5,3.33,3.33,0,0,1-1.16,2.58,4.06,4.06,0,0,1-2.82,1,4.62,4.62,0,0,1-3.58-1.6l1.25-1.72.36.33a4.65,4.65,0,0,0,.83.53,2.51,2.51,0,0,0,1.21.33,1.71,1.71,0,0,0,1.07-.36,1.24,1.24,0,0,0,.48-1.07,1.33,1.33,0,0,0-.5-1.1,2.08,2.08,0,0,0-1.31-.39,4.07,4.07,0,0,0-1.86.57l-1-1.07,0-5.15Z" transform="translate(-24.86 -31.66)"/><path class="cls-9" d="M263.74,160.34a1.83,1.83,0,0,0-1.53.65,3.27,3.27,0,0,0-.66,1.79,3.71,3.71,0,0,1,2.09-.63,3.34,3.34,0,0,1,2.46,1,3.41,3.41,0,0,1,1,2.58,3.28,3.28,0,0,1-1.08,2.58,3.82,3.82,0,0,1-2.69,1,4.11,4.11,0,0,1-1.94-.44,3.09,3.09,0,0,1-1.27-1.21,7.09,7.09,0,0,1-.89-3.75,8.46,8.46,0,0,1,.37-2.55,4.49,4.49,0,0,1,1-1.73,4,4,0,0,1,3-1.25,4.43,4.43,0,0,1,1.41.23,4.07,4.07,0,0,1,1,.45,7.45,7.45,0,0,1,.8.58l-1.13,1.65c-.06-.06-.14-.14-.26-.24a3.69,3.69,0,0,0-.69-.4A2.32,2.32,0,0,0,263.74,160.34Zm-.33,3.8a1.75,1.75,0,0,0-1.19.42,1.4,1.4,0,0,0-.48,1.07,1.62,1.62,0,0,0,.45,1.15,1.49,1.49,0,0,0,1.13.48,1.62,1.62,0,0,0,1.14-.42,1.43,1.43,0,0,0,.46-1.09,1.67,1.67,0,0,0-.4-1.14A1.43,1.43,0,0,0,263.41,164.14Z" transform="translate(-24.86 -31.66)"/><path class="cls-9" d="M298.48,162.12l0-3.39,7.63,0v1.79l-4.32,8.76h-2.57l4.12-8.53h-2.66v1.36Z" transform="translate(-24.86 -31.66)"/><path class="cls-11" d="M63.06,183.31a4.53,4.53,0,0,1,5.24,0,2.51,2.51,0,0,1,1,2,2.79,2.79,0,0,1-1,2.09,3.2,3.2,0,0,1,1.3,2.67,3,3,0,0,1-1.13,2.34,5,5,0,0,1-5.84,0,3,3,0,0,1-1.11-2.35,3.22,3.22,0,0,1,1.33-2.66,2.81,2.81,0,0,1-.94-2.11A2.54,2.54,0,0,1,63.06,183.31Zm1.44,7.79a2.06,2.06,0,0,0,1.15.36,2.1,2.1,0,0,0,1.15-.35,1.18,1.18,0,0,0,.53-1,1.2,1.2,0,0,0-.51-1,2,2,0,0,0-1.16-.37,2,2,0,0,0-1.17.36,1.22,1.22,0,0,0-.52,1A1.19,1.19,0,0,0,64.5,191.1Zm.16-4.62a1.54,1.54,0,0,0,1,.36,1.48,1.48,0,0,0,1-.35,1.17,1.17,0,0,0,0-1.8,1.45,1.45,0,0,0-1-.37,1.51,1.51,0,0,0-1,.36,1.12,1.12,0,0,0-.43.9A1.17,1.17,0,0,0,64.66,186.48Z" transform="translate(-24.86 -31.66)"/><path class="cls-9" d="M104.42,191.6a1.85,1.85,0,0,0,1.52-.65,3.38,3.38,0,0,0,.67-1.79,3.72,3.72,0,0,1-2.09.64,3.37,3.37,0,0,1-3.45-3.57,3.38,3.38,0,0,1,1.08-2.58,3.89,3.89,0,0,1,2.69-1,4.21,4.21,0,0,1,1.94.44,3.27,3.27,0,0,1,1.29,1.21,7.22,7.22,0,0,1,.87,3.76,8.09,8.09,0,0,1-.37,2.54,4.41,4.41,0,0,1-1,1.73,4,4,0,0,1-3,1.25,4.44,4.44,0,0,1-1.42-.22,4.5,4.5,0,0,1-1-.45,7.83,7.83,0,0,1-.8-.57l1.19-1.65.28.23a3.26,3.26,0,0,0,.67.39A2.17,2.17,0,0,0,104.42,191.6Zm.34-3.81a1.76,1.76,0,0,0,1.18-.4,1.36,1.36,0,0,0,.47-1.07,1.66,1.66,0,0,0-.45-1.16,1.53,1.53,0,0,0-1.13-.49,1.5,1.5,0,0,0-1.11.43,1.48,1.48,0,0,0-.44,1.09,1.69,1.69,0,0,0,.39,1.13A1.34,1.34,0,0,0,104.76,187.79Z" transform="translate(-24.86 -31.66)"/><path class="cls-9" d="M135.88,183.09l4.28,0,0,10.57h-2.27l0-8.56h-2Z" transform="translate(-24.86 -31.66)"/><path class="cls-9" d="M146.67,193.84a3.79,3.79,0,0,1-3.27-1.5,6.55,6.55,0,0,1-1.07-4,6.63,6.63,0,0,1,1.11-4,4.36,4.36,0,0,1,6.56,0,7.81,7.81,0,0,1,0,8A3.79,3.79,0,0,1,146.67,193.84Zm-1.52-8a5.71,5.71,0,0,0-.51,2.55,5.64,5.64,0,0,0,.49,2.56,1.73,1.73,0,0,0,3.11,0,6.72,6.72,0,0,0,0-5.11,1.64,1.64,0,0,0-1.55-1A1.67,1.67,0,0,0,145.15,185.82Z" transform="translate(-24.86 -31.66)"/><path class="cls-9" d="M178.27,183l4.29,0-.06,10.57h-2.27l.05-8.56h-2Z" transform="translate(-24.86 -31.66)"/><path class="cls-9" d="M184.37,183.05l4.28,0-.05,10.57h-2.27l0-8.56h-2Z" transform="translate(-24.86 -31.66)"/><path class="cls-9" d="M214.7,183.5l4.28,0-.06,10.58-2.26,0,0-8.56h-2Z" transform="translate(-24.86 -31.66)"/><path class="cls-9" d="M225.62,187.68a1.9,1.9,0,0,0,.41-1.09,1.23,1.23,0,0,0-.35-.89,1.17,1.17,0,0,0-.89-.36c-.66,0-1.3.47-1.89,1.41L221,185.62a5.83,5.83,0,0,1,1.64-1.73,4,4,0,0,1,2.25-.58,3.64,3.64,0,0,1,2.4.89,2.93,2.93,0,0,1,1,2.37,3.27,3.27,0,0,1-.43,1.56,10.33,10.33,0,0,1-1.54,1.91l-1.92,2,4.17,0v2.12l-7.45,0v-1.76l3.11-3.16A13.12,13.12,0,0,0,225.62,187.68Z" transform="translate(-24.86 -31.66)"/><path class="cls-9" d="M254.16,183.71l4.28,0-.05,10.57h-2.27l0-8.56h-2Z" transform="translate(-24.86 -31.66)"/><path class="cls-9" d="M260.91,185.75v-2l6.47,0v1.63l-2.18,2.45a3.1,3.1,0,0,1,2,1.08,3.06,3.06,0,0,1,.69,2,3.26,3.26,0,0,1-1.14,2.6,4.31,4.31,0,0,1-2.89.93,6.32,6.32,0,0,1-3.55-1.26l1-1.87a4.79,4.79,0,0,0,2.67,1.07,1.86,1.86,0,0,0,1.18-.34,1.19,1.19,0,0,0,.46-1,1.24,1.24,0,0,0-.52-1.05,2.42,2.42,0,0,0-1.47-.39,5,5,0,0,0-1.4.28v-1.74l2-2.38Z" transform="translate(-24.86 -31.66)"/><path class="cls-9" d="M293.64,183.91l4.28,0-.05,10.58-2.27,0,0-8.56h-2Z" transform="translate(-24.86 -31.66)"/><path class="cls-9" d="M304,190v-1.85l2.27,0V190h1.2v2h-1.2v2.53H304V192l-4.25,0v-1.8l3.8-6.23,2.57,0-3.62,6Z" transform="translate(-24.86 -31.66)"/><path class="cls-11" d="M57,208.68l4.28,0,0,10.57H58.91L59,210.7h-2Z" transform="translate(-24.86 -31.66)"/><path class="cls-11" d="M70.23,208.75v2l-4.17,0v1.77a3.87,3.87,0,0,1,1.07-.13,4,4,0,0,1,2.63.93,3.07,3.07,0,0,1,1.09,2.5,3.32,3.32,0,0,1-1.15,2.58,4.1,4.1,0,0,1-2.83,1,4.64,4.64,0,0,1-3.58-1.6l1.25-1.72.36.34a6,6,0,0,0,.83.52,2.54,2.54,0,0,0,1.21.33,1.79,1.79,0,0,0,1.08-.35,1.3,1.3,0,0,0,.47-1.08,1.25,1.25,0,0,0-.5-1.09,2,2,0,0,0-1.31-.4,4.07,4.07,0,0,0-1.86.57l-1-1.07,0-5.15Z" transform="translate(-24.86 -31.66)"/><path class="cls-9" d="M96.51,208.89l4.28,0-.06,10.57H98.46l.05-8.56h-2Z" transform="translate(-24.86 -31.66)"/><path class="cls-9" d="M107.48,210.73a1.81,1.81,0,0,0-1.52.65,3.27,3.27,0,0,0-.67,1.79,3.73,3.73,0,0,1,2.09-.63,3.42,3.42,0,0,1,2.47,1,3.45,3.45,0,0,1,1,2.59,3.27,3.27,0,0,1-1.08,2.57,3.82,3.82,0,0,1-2.69.95,4.11,4.11,0,0,1-1.94-.44,3.09,3.09,0,0,1-1.27-1.21,7.18,7.18,0,0,1-.89-3.75,8.46,8.46,0,0,1,.37-2.55,4.38,4.38,0,0,1,1-1.73,4,4,0,0,1,3-1.25,5.12,5.12,0,0,1,2.44.68,7.45,7.45,0,0,1,.8.58l-1.13,1.65c-.06-.06-.14-.14-.26-.24a3.52,3.52,0,0,0-.68-.4A2.4,2.4,0,0,0,107.48,210.73Zm-.33,3.81A1.67,1.67,0,0,0,106,215a1.38,1.38,0,0,0-.49,1.07,1.62,1.62,0,0,0,.45,1.15,1.5,1.5,0,0,0,1.14.48,1.6,1.6,0,0,0,1.13-.42,1.39,1.39,0,0,0,.46-1.09,1.67,1.67,0,0,0-.4-1.14A1.39,1.39,0,0,0,107.15,214.54Z" transform="translate(-24.86 -31.66)"/><path class="cls-9" d="M135.9,209.09l4.28,0-.06,10.57h-2.27l.05-8.56h-2Z" transform="translate(-24.86 -31.66)"/><path class="cls-9" d="M142.22,212.51v-3.39l7.64,0V211l-4.32,8.76H143l4.12-8.53h-2.66v1.36Z" transform="translate(-24.86 -31.66)"/><path class="cls-9" d="M175.51,209.29l4.28,0-.06,10.57h-2.26l0-8.56h-2Z" transform="translate(-24.86 -31.66)"/><path class="cls-9" d="M183.36,209.93a4.55,4.55,0,0,1,5.24,0,2.53,2.53,0,0,1,1,2.06,2.8,2.8,0,0,1-.95,2.09,3.19,3.19,0,0,1,1.3,2.66,2.94,2.94,0,0,1-1.13,2.34,4.3,4.3,0,0,1-2.93.94,4.35,4.35,0,0,1-2.91-1,3,3,0,0,1-1.11-2.35,3.2,3.2,0,0,1,1.33-2.65,2.81,2.81,0,0,1-.94-2.11A2.54,2.54,0,0,1,183.36,209.93Zm1.44,7.78a2,2,0,0,0,1.14.36,2,2,0,0,0,1.16-.34,1.18,1.18,0,0,0,.53-1,1.2,1.2,0,0,0-.51-1,1.91,1.91,0,0,0-1.16-.37,1.94,1.94,0,0,0-1.17.35,1.23,1.23,0,0,0-.52,1A1.17,1.17,0,0,0,184.8,217.71Zm.16-4.62a1.48,1.48,0,0,0,1,.37,1.54,1.54,0,0,0,1-.36,1.1,1.1,0,0,0,.43-.89,1.17,1.17,0,0,0-.42-.91,1.61,1.61,0,0,0-2,0,1.17,1.17,0,0,0,0,1.8Z" transform="translate(-24.86 -31.66)"/><path class="cls-9" d="M215,209.5l4.28,0-.05,10.57h-2.27l0-8.56h-2Z" transform="translate(-24.86 -31.66)"/><path class="cls-9" d="M224.71,218.22a1.84,1.84,0,0,0,1.52-.66,3.27,3.27,0,0,0,.67-1.78,3.67,3.67,0,0,1-2.09.64,3.43,3.43,0,0,1-2.47-1,3.48,3.48,0,0,1-1-2.59,3.29,3.29,0,0,1,1.08-2.57,3.78,3.78,0,0,1,2.69-1,4.11,4.11,0,0,1,1.94.44,3.18,3.18,0,0,1,1.28,1.21,7.18,7.18,0,0,1,.88,3.75,8.46,8.46,0,0,1-.37,2.55,4.53,4.53,0,0,1-1,1.73,4,4,0,0,1-3,1.25,4.79,4.79,0,0,1-1.42-.22,4.6,4.6,0,0,1-1-.45c-.24-.15-.5-.34-.8-.57l1.19-1.66.27.24a3.42,3.42,0,0,0,.68.39A2.32,2.32,0,0,0,224.71,218.22Zm.35-3.82a1.67,1.67,0,0,0,1.17-.4,1.34,1.34,0,0,0,.47-1.07,1.58,1.58,0,0,0-.44-1.15,1.5,1.5,0,0,0-1.13-.49,1.54,1.54,0,0,0-1.12.42,1.49,1.49,0,0,0-.43,1.1,1.65,1.65,0,0,0,.38,1.13A1.36,1.36,0,0,0,225.06,214.4Z" transform="translate(-24.86 -31.66)"/><path class="cls-9" d="M259.78,213.85a1.9,1.9,0,0,0,.41-1.09,1.22,1.22,0,0,0-.34-.89,1.18,1.18,0,0,0-.89-.36c-.67,0-1.3.47-1.9,1.41l-1.89-1.13a6,6,0,0,1,1.64-1.73,3.92,3.92,0,0,1,2.25-.57,3.58,3.58,0,0,1,2.41.88,3,3,0,0,1,1,2.37,3.16,3.16,0,0,1-.43,1.56,10.33,10.33,0,0,1-1.54,1.91l-1.92,2,4.18,0v2.12l-7.46,0v-1.76l3.12-3.16A12.84,12.84,0,0,0,259.78,213.85Z" transform="translate(-24.86 -31.66)"/><path class="cls-9" d="M268.8,220.47a3.79,3.79,0,0,1-3.27-1.51,7.79,7.79,0,0,1,0-8,4.36,4.36,0,0,1,6.56,0,7.81,7.81,0,0,1,0,8A3.79,3.79,0,0,1,268.8,220.47Zm-1.51-8a5.57,5.57,0,0,0-.52,2.55,5.67,5.67,0,0,0,.49,2.56,1.63,1.63,0,0,0,1.55,1,1.61,1.61,0,0,0,1.56-1,5.57,5.57,0,0,0,.52-2.55,5.67,5.67,0,0,0-.49-2.56,1.63,1.63,0,0,0-1.55-1A1.61,1.61,0,0,0,267.29,212.45Z" transform="translate(-24.86 -31.66)"/><path class="cls-9" d="M298.73,214.05a1.86,1.86,0,0,0,.4-1.09,1.2,1.2,0,0,0-.34-.89,1.18,1.18,0,0,0-.89-.36c-.67,0-1.3.47-1.9,1.41L294.12,212a5.93,5.93,0,0,1,1.63-1.73,4,4,0,0,1,2.26-.57,3.58,3.58,0,0,1,2.4.88,2.89,2.89,0,0,1,1,2.37,3.1,3.1,0,0,1-.42,1.56,10.43,10.43,0,0,1-1.54,1.91l-1.92,2,4.17,0v2.12l-7.45,0v-1.75l3.12-3.16A13.93,13.93,0,0,0,298.73,214.05Z" transform="translate(-24.86 -31.66)"/><path class="cls-9" d="M303.05,210l4.28,0-.05,10.57H305l0-8.56h-2Z" transform="translate(-24.86 -31.66)"/><path class="cls-11" d="M61.08,238.21a1.9,1.9,0,0,0,.41-1.09,1.22,1.22,0,0,0-.34-.89,1.21,1.21,0,0,0-.9-.36q-1,0-1.89,1.41l-1.89-1.13a6,6,0,0,1,1.64-1.73,4,4,0,0,1,2.25-.58,3.64,3.64,0,0,1,2.41.89,3,3,0,0,1,1,2.37,3.16,3.16,0,0,1-.43,1.56,10.33,10.33,0,0,1-1.54,1.91l-1.92,2,4.18,0v2.12l-7.46,0v-1.76l3.12-3.16A13.85,13.85,0,0,0,61.08,238.21Z" transform="translate(-24.86 -31.66)"/><path class="cls-11" d="M70.23,238.26a1.9,1.9,0,0,0,.41-1.1,1.21,1.21,0,0,0-.34-.88,1.18,1.18,0,0,0-.89-.36c-.67,0-1.3.46-1.9,1.41l-1.89-1.13a6,6,0,0,1,1.64-1.73,4,4,0,0,1,2.26-.58,3.68,3.68,0,0,1,2.4.88,3,3,0,0,1,1,2.38,3.16,3.16,0,0,1-.43,1.56,10,10,0,0,1-1.54,1.9l-1.92,2,4.18,0v2.11l-7.46,0v-1.76l3.12-3.16A12.84,12.84,0,0,0,70.23,238.26Z" transform="translate(-24.86 -31.66)"/><path class="cls-9" d="M101.51,238.24a1.88,1.88,0,0,0,.4-1.09,1.2,1.2,0,0,0-1.23-1.25c-.67,0-1.3.47-1.9,1.41l-1.88-1.13a5.93,5.93,0,0,1,1.63-1.73,4,4,0,0,1,2.26-.57,3.58,3.58,0,0,1,2.4.88,2.89,2.89,0,0,1,1,2.37,3.15,3.15,0,0,1-.42,1.56,10.47,10.47,0,0,1-1.55,1.91l-1.91,2,4.17,0v2.12l-7.45,0v-1.76l3.12-3.16A13.12,13.12,0,0,0,101.51,238.24Z" transform="translate(-24.86 -31.66)"/><path class="cls-9" d="M106.49,236.16v-2l6.47,0v1.63l-2.17,2.46a3.07,3.07,0,0,1,2,1.07,3,3,0,0,1,.68,2,3.17,3.17,0,0,1-1.14,2.6,4.28,4.28,0,0,1-2.88.93,6.23,6.23,0,0,1-3.55-1.25l1-1.87a4.84,4.84,0,0,0,2.67,1.07,1.91,1.91,0,0,0,1.17-.34,1.3,1.3,0,0,0-.06-2.05,2.48,2.48,0,0,0-1.46-.4,5.11,5.11,0,0,0-1.41.28v-1.74l2-2.37Z" transform="translate(-24.86 -31.66)"/><path class="cls-9" d="M141,238.45a1.93,1.93,0,0,0,.41-1.1,1.2,1.2,0,0,0-.34-.88,1.25,1.25,0,0,0-.9-.37c-.66,0-1.3.47-1.89,1.42l-1.89-1.13a5.71,5.71,0,0,1,1.64-1.73,3.92,3.92,0,0,1,2.25-.58,3.61,3.61,0,0,1,2.4.88,2.93,2.93,0,0,1,1,2.37,3.28,3.28,0,0,1-.43,1.57,10.34,10.34,0,0,1-1.54,1.9l-1.92,2,4.18,0,0,2.11-7.45,0v-1.75l3.12-3.16A14.86,14.86,0,0,0,141,238.45Z" transform="translate(-24.86 -31.66)"/><path class="cls-9" d="M149.61,240.37v-1.84h2.27v1.85h1.19v2h-1.19V245h-2.27v-2.53l-4.25,0v-1.8l3.8-6.22h2.57l-3.62,6Z" transform="translate(-24.86 -31.66)"/><path class="cls-9" d="M180.5,238.65a1.88,1.88,0,0,0,.4-1.09,1.2,1.2,0,0,0-1.23-1.25c-.67,0-1.3.47-1.9,1.41l-1.88-1.13a5.93,5.93,0,0,1,1.63-1.73,4,4,0,0,1,2.26-.58,3.64,3.64,0,0,1,2.4.89,2.89,2.89,0,0,1,1,2.37,3.15,3.15,0,0,1-.42,1.56,10.47,10.47,0,0,1-1.55,1.91l-1.91,2,4.17,0v2.12l-7.46,0v-1.76l3.12-3.16A13.12,13.12,0,0,0,180.5,238.65Z" transform="translate(-24.86 -31.66)"/><path class="cls-9" d="M192,234.59l0,2-4.17,0v1.77a4.26,4.26,0,0,1,3.7.8,3,3,0,0,1,1.09,2.5,3.32,3.32,0,0,1-1.15,2.58,4.1,4.1,0,0,1-2.83,1,4.6,4.6,0,0,1-3.57-1.6l1.25-1.72.36.33a4.3,4.3,0,0,0,.83.53,2.47,2.47,0,0,0,1.2.33,1.77,1.77,0,0,0,1.08-.35,1.33,1.33,0,0,0,.48-1.08,1.31,1.31,0,0,0-.51-1.1,2.05,2.05,0,0,0-1.3-.39,4.07,4.07,0,0,0-1.87.57l-1-1.07,0-5.15Z" transform="translate(-24.86 -31.66)"/><path class="cls-9" d="M220.05,238.85a1.88,1.88,0,0,0,.41-1.09,1.21,1.21,0,0,0-1.24-1.25c-.66,0-1.3.47-1.89,1.42l-1.89-1.13a5.71,5.71,0,0,1,1.64-1.73,3.92,3.92,0,0,1,2.25-.58,3.63,3.63,0,0,1,2.4.88,2.93,2.93,0,0,1,1,2.37,3.28,3.28,0,0,1-.43,1.57,10.34,10.34,0,0,1-1.54,1.9l-1.92,2,4.17,0v2.12l-7.45,0v-1.75l3.11-3.16A13,13,0,0,0,220.05,238.85Z" transform="translate(-24.86 -31.66)"/><path class="cls-9" d="M229.25,236.57a1.81,1.81,0,0,0-1.52.65,3.35,3.35,0,0,0-.67,1.79,3.76,3.76,0,0,1,2.09-.63,3.42,3.42,0,0,1,2.47,1,3.45,3.45,0,0,1,1,2.59,3.3,3.3,0,0,1-1.07,2.57,3.85,3.85,0,0,1-2.69.95,4.13,4.13,0,0,1-2-.44,3.15,3.15,0,0,1-1.27-1.21,7.09,7.09,0,0,1-.88-3.75,8.17,8.17,0,0,1,.36-2.55,4.38,4.38,0,0,1,1-1.73,4,4,0,0,1,3-1.25,4.43,4.43,0,0,1,1.41.23,4.34,4.34,0,0,1,1,.45,7.42,7.42,0,0,1,.79.58l-1.12,1.65-.27-.24a3.52,3.52,0,0,0-.68-.4A2.4,2.4,0,0,0,229.25,236.57Zm-.33,3.8a1.72,1.72,0,0,0-1.18.42,1.34,1.34,0,0,0-.48,1.07,1.54,1.54,0,0,0,.45,1.15,1.47,1.47,0,0,0,1.13.48,1.6,1.6,0,0,0,1.13-.42,1.39,1.39,0,0,0,.46-1.09,1.67,1.67,0,0,0-.4-1.14A1.43,1.43,0,0,0,228.92,240.37Z" transform="translate(-24.86 -31.66)"/><path class="cls-9" d="M259.44,239.06a1.9,1.9,0,0,0,.41-1.09,1.22,1.22,0,0,0-.34-.89,1.18,1.18,0,0,0-.89-.36c-.67,0-1.3.47-1.9,1.41L254.83,237a6,6,0,0,1,1.64-1.73,4,4,0,0,1,2.26-.58,3.68,3.68,0,0,1,2.4.88,3,3,0,0,1,1,2.38,3.16,3.16,0,0,1-.43,1.56,10,10,0,0,1-1.54,1.9l-1.92,2,4.18,0v2.11l-7.46,0v-1.76l3.12-3.16A12.84,12.84,0,0,0,259.44,239.06Z" transform="translate(-24.86 -31.66)"/><path class="cls-9" d="M264,238.35l0-3.39,7.64,0v1.79l-4.33,8.76h-2.57l4.13-8.53h-2.66v1.36Z" transform="translate(-24.86 -31.66)"/><path class="cls-9" d="M299.05,239.26a1.88,1.88,0,0,0,.41-1.09,1.24,1.24,0,0,0-.34-.89,1.21,1.21,0,0,0-.9-.36q-1,0-1.89,1.41l-1.89-1.12a5.71,5.71,0,0,1,1.64-1.73,3.85,3.85,0,0,1,2.25-.58,3.56,3.56,0,0,1,2.4.88,2.93,2.93,0,0,1,1,2.37,3.21,3.21,0,0,1-.43,1.56,10,10,0,0,1-1.54,1.91l-1.92,2,4.18,0,0,2.12-7.45,0v-1.75l3.12-3.16A13.76,13.76,0,0,0,299.05,239.26Z" transform="translate(-24.86 -31.66)"/><path class="cls-9" d="M305.14,235.76a4.57,4.57,0,0,1,5.24,0,2.55,2.55,0,0,1,1,2.06,2.8,2.8,0,0,1-1,2.09,3.19,3.19,0,0,1,1.3,2.66,2.94,2.94,0,0,1-1.13,2.34,4.33,4.33,0,0,1-2.92.94,4.39,4.39,0,0,1-2.92-1,3,3,0,0,1-1.1-2.35,3.15,3.15,0,0,1,1.33-2.65,2.79,2.79,0,0,1-.95-2.11A2.52,2.52,0,0,1,305.14,235.76Zm1.43,7.79a2,2,0,0,0,1.15.36,2,2,0,0,0,1.15-.34,1.18,1.18,0,0,0,.53-1,1.2,1.2,0,0,0-.5-1.05,2,2,0,0,0-1.17-.36,1.94,1.94,0,0,0-1.17.35,1.2,1.2,0,0,0-.51,1A1.15,1.15,0,0,0,306.57,243.55Zm.17-4.62a1.46,1.46,0,0,0,1,.37,1.54,1.54,0,0,0,1-.36,1.11,1.11,0,0,0,.43-.89,1.13,1.13,0,0,0-.41-.91,1.53,1.53,0,0,0-1-.36,1.45,1.45,0,0,0-1,.35,1.15,1.15,0,0,0-.43.9A1.12,1.12,0,0,0,306.74,238.93Z" transform="translate(-24.86 -31.66)"/><path class="cls-11" d="M60.33,263.26a2,2,0,0,0,.41-1.09,1.23,1.23,0,0,0-.35-.89,1.18,1.18,0,0,0-.89-.36c-.66,0-1.3.47-1.9,1.41l-1.88-1.13a5.93,5.93,0,0,1,1.63-1.73,4,4,0,0,1,2.26-.57,3.58,3.58,0,0,1,2.4.88,2.89,2.89,0,0,1,1,2.37,3.12,3.12,0,0,1-.42,1.56,10.33,10.33,0,0,1-1.54,1.91l-1.92,2,4.17,0v2.12l-7.45,0v-1.76L59,264.77A13.12,13.12,0,0,0,60.33,263.26Z" transform="translate(-24.86 -31.66)"/><path class="cls-11" d="M68.3,267.85a1.85,1.85,0,0,0,1.52-.65,3.38,3.38,0,0,0,.67-1.79,3.7,3.7,0,0,1-2.09.64,3.39,3.39,0,0,1-2.47-1,3.45,3.45,0,0,1-1-2.58A3.38,3.38,0,0,1,66,259.9a3.89,3.89,0,0,1,2.69-1,4.18,4.18,0,0,1,1.94.44A3.27,3.27,0,0,1,72,260.59a7.22,7.22,0,0,1,.87,3.76,8.11,8.11,0,0,1-.36,2.54,4.67,4.67,0,0,1-1,1.73,4.09,4.09,0,0,1-3,1.26,4.8,4.8,0,0,1-1.42-.23,4.71,4.71,0,0,1-1-.45,9.11,9.11,0,0,1-.8-.57L66.41,267l.28.23a3.58,3.58,0,0,0,.67.39A2.2,2.2,0,0,0,68.3,267.85Zm.34-3.81a1.76,1.76,0,0,0,1.18-.4,1.36,1.36,0,0,0,.47-1.07,1.65,1.65,0,0,0-.44-1.16,1.56,1.56,0,0,0-1.14-.49,1.5,1.5,0,0,0-1.11.43,1.48,1.48,0,0,0-.44,1.09,1.69,1.69,0,0,0,.39,1.13A1.36,1.36,0,0,0,68.64,264Z" transform="translate(-24.86 -31.66)"/><path class="cls-9" d="M95.73,261.34v-2l6.48,0V261L100,263.45a3,3,0,0,1,2.65,3.05,3.23,3.23,0,0,1-1.14,2.6,4.31,4.31,0,0,1-2.89.93,6.18,6.18,0,0,1-3.55-1.26l1-1.87A4.92,4.92,0,0,0,98.75,268a1.92,1.92,0,0,0,1.18-.35,1.16,1.16,0,0,0,.46-1,1.21,1.21,0,0,0-.52-1.05,2.57,2.57,0,0,0-1.47-.39,5,5,0,0,0-1.4.28v-1.74l2-2.38Z" transform="translate(-24.86 -31.66)"/><path class="cls-9" d="M108.71,270.08a3.82,3.82,0,0,1-3.28-1.5,7.87,7.87,0,0,1,0-8,4.37,4.37,0,0,1,6.57,0,7.79,7.79,0,0,1,0,7.95A3.79,3.79,0,0,1,108.71,270.08Zm-1.52-8a5.45,5.45,0,0,0-.51,2.55,5.51,5.51,0,0,0,.49,2.56,1.62,1.62,0,0,0,1.55,1,1.65,1.65,0,0,0,1.56-1,6.84,6.84,0,0,0,0-5.11,1.64,1.64,0,0,0-1.56-1A1.66,1.66,0,0,0,107.19,262.06Z" transform="translate(-24.86 -31.66)"/><path class="cls-11" d="M79.1,86.32a4.47,4.47,0,1,1-4.47-4.47A4.47,4.47,0,0,1,79.1,86.32Z" transform="translate(-24.86 -31.66)"/><rect class="cls-9" x="47.56" y="34.4" width="4.42" height="22.09" rx="1.98"/><path class="cls-11" d="M111.75,86.32a4.47,4.47,0,1,1-4.47-4.47A4.47,4.47,0,0,1,111.75,86.32Z" transform="translate(-24.86 -31.66)"/><rect class="cls-9" x="80.21" y="34.4" width="4.42" height="22.09" rx="1.98"/><path class="cls-11" d="M144.4,86.32a4.47,4.47,0,1,1-4.47-4.47A4.47,4.47,0,0,1,144.4,86.32Z" transform="translate(-24.86 -31.66)"/><rect class="cls-9" x="112.86" y="34.4" width="4.42" height="22.09" rx="1.98"/><path class="cls-11" d="M177.05,86.32a4.47,4.47,0,1,1-4.47-4.47A4.47,4.47,0,0,1,177.05,86.32Z" transform="translate(-24.86 -31.66)"/><rect class="cls-9" x="145.51" y="34.4" width="4.42" height="22.09" rx="1.98"/><path class="cls-11" d="M209.7,86.32a4.47,4.47,0,1,1-4.47-4.47A4.47,4.47,0,0,1,209.7,86.32Z" transform="translate(-24.86 -31.66)"/><rect class="cls-9" x="178.16" y="34.4" width="4.42" height="22.09" rx="1.98"/><path class="cls-11" d="M242.35,86.32a4.47,4.47,0,1,1-4.47-4.47A4.47,4.47,0,0,1,242.35,86.32Z" transform="translate(-24.86 -31.66)"/><rect class="cls-9" x="210.81" y="34.4" width="4.42" height="22.09" rx="1.98"/><path class="cls-11" d="M275,86.32a4.47,4.47,0,1,1-4.47-4.47A4.47,4.47,0,0,1,275,86.32Z" transform="translate(-24.86 -31.66)"/><rect class="cls-9" x="243.46" y="34.4" width="4.42" height="22.09" rx="1.98"/><path class="cls-11" d="M307.65,86.32a4.47,4.47,0,1,1-4.47-4.47A4.47,4.47,0,0,1,307.65,86.32Z" transform="translate(-24.86 -31.66)"/><rect class="cls-9" x="276.11" y="34.4" width="4.42" height="22.09" rx="1.98"/><path class="cls-11" d="M340.3,86.32a4.47,4.47,0,1,1-4.47-4.47A4.47,4.47,0,0,1,340.3,86.32Z" transform="translate(-24.86 -31.66)"/><rect class="cls-9" x="308.75" y="34.4" width="4.42" height="22.09" rx="1.98"/><path class="cls-11" d="M373,86.32a4.47,4.47,0,1,1-4.47-4.47A4.47,4.47,0,0,1,373,86.32Z" transform="translate(-24.86 -31.66)"/><rect class="cls-9" x="341.4" y="34.4" width="4.42" height="22.09" rx="1.98"/><g class="cls-16"><path class="cls-17" d="M189.69,250.36c2.4,5.91-30.49,7-26.75-.49s3.79-20.56,3.79-20.56h21.39S187.3,244.45,189.69,250.36Z" transform="translate(-24.86 -31.66)"/><path class="cls-18" d="M171.2,229.31c.6,6.57,5,10.51,12,12.94a28.06,28.06,0,0,0,5.13,1.26,113.23,113.23,0,0,1-.21-14.2Z" transform="translate(-24.86 -31.66)"/><path class="cls-17" d="M199.12,209.25c-.13-1.2-1.1-6.25-1.7-9.26-.12-.73-.26-1.41-.41-2.09l0-.22h0c-2.82-12.77-9.06-17.17-18-17.17-11.71,0-21.2,13.3-21.2,29.71s13.92,24.32,25.45,26.34c13,2.27,15.56.63,16.26-7.1h0c1.15-3.23.79-9.39,2.81-10.95S199.3,211,199.12,209.25Z" transform="translate(-24.86 -31.66)"/><path class="cls-19" d="M206.34,183.22c-1-3.3-4.53-1.44-7.11.5-.06-.23,7.57-4.89,5.26-6.51-3.62-2.53-7.34,2.3-7.58,2.1,2.23-2.38,1.69-2.68-.11-3.21-.69-.21-3,0-5.54,1.42a14.67,14.67,0,0,1-7.8,2c-2.6-.12-6.28-.4-13-.71-15.45-.72-17.37,13.77-17.37,13.77s-6.35,4.79-5.51,14.86,18.69,25.63,18.69,25.63,7.66,3.23,15.57-3.72,3.83-11.73,7.27-15.46,0-5.26-.69-11.48,7.74-7.86,7.74-7.86C205.64,188,206.89,185,206.34,183.22Z" transform="translate(-24.86 -31.66)"/><path class="cls-17" d="M189.3,212.85c1.46,2.85.76,6.12-1.56,7.31s-5.39-.16-6.85-3-.76-6.12,1.56-7.31S187.84,210,189.3,212.85Z" transform="translate(-24.86 -31.66)"/><polygon class="cls-20" points="184.91 434.26 118.28 434.26 108.97 365.2 194.23 365.2 184.91 434.26"/><path class="cls-21" d="M167.36,414.43s1,8.53,8.13,17.56l.12,33.93" transform="translate(-24.86 -31.66)"/><path class="cls-17" d="M256.43,178.12s-3.41,2.4-3.6,5.81c-.15,2.77.77,8.3,2.4,9.92s2.27.51,2.27.51Z" transform="translate(-24.86 -31.66)"/><path class="cls-17" d="M268,202.83s1.51-5.28,2.64-17.73c.17-1.8,1.06-5.43-.87-6.7-.42-.28-1.89-1.27-2.54.74.35-2.48-2.87-3.29-3.34-.84a1.87,1.87,0,0,0-3.73-.29c.12-3.08,0-4.42,0-7.7s-.29-5.17-1.32-5.27-2.26-1-3.78,15.7a82.57,82.57,0,0,0-.58,10c.22,4.23.8,7.14,2.41,8.23C261.59,203.45,268,202.83,268,202.83Z" transform="translate(-24.86 -31.66)"/><path class="cls-18" d="M117.9,355.94l9.45-1.17a4.49,4.49,0,0,1,4.17,2.74l2.15,3.74Z" transform="translate(-24.86 -31.66)"/><path class="cls-17" d="M118.2,355.22s18.74,4.93,18.59,7.08c-.24,3.46-3.15,10.53-4.29,12.42-.56.94-1.49,1.73-4.83,1.14a23,23,0,0,1-8.56-3.42c-4.44-3.24-5.27-6.81-5.27-6.81Z" transform="translate(-24.86 -31.66)"/><path class="cls-18" d="M135.5,367.63a24.13,24.13,0,0,0,1.29-5.33c.15-2.15-18.59-7.08-18.59-7.08l-.91,2.18C123.18,361,129.25,364.58,135.5,367.63Z" transform="translate(-24.86 -31.66)"/><path class="cls-18" d="M136.06,365.84a2.07,2.07,0,0,1-.9-.2L129.6,363a2.12,2.12,0,1,1,1.81-3.83l5.55,2.62a2.12,2.12,0,0,1-.9,4Z" transform="translate(-24.86 -31.66)"/><path class="cls-17" d="M134.61,369.78a2.07,2.07,0,0,1-.9-.2L128.15,367a2.12,2.12,0,0,1,1.81-3.83l5.55,2.62a2.12,2.12,0,0,1-.9,4Z" transform="translate(-24.86 -31.66)"/><path class="cls-18" d="M136.72,367.73a2.11,2.11,0,0,0-1.21-2L130,363.13a2.11,2.11,0,0,0-2.43.46A82.06,82.06,0,0,0,136.72,367.73Z" transform="translate(-24.86 -31.66)"/><path class="cls-17" d="M133.16,373.72a2.07,2.07,0,0,1-.9-.2l-5.56-2.62a2.12,2.12,0,0,1,1.81-3.83l5.56,2.62a2.12,2.12,0,0,1-.91,4Z" transform="translate(-24.86 -31.66)"/><path class="cls-17" d="M131.71,377.66a2.22,2.22,0,0,1-.9-.2l-5.55-2.63a2.11,2.11,0,1,1,1.8-3.82l5.56,2.62a2.12,2.12,0,0,1-.91,4Z" transform="translate(-24.86 -31.66)"/><path class="cls-22" d="M153.77,251.91c-.45-.22,8.87-8.67,8.87-8.67s5.29,1.54,28.36,1.38l9.32,8.14S182,265.81,153.77,251.91Z" transform="translate(-24.86 -31.66)"/><path class="cls-22" d="M254.33,195.44l.15,5c-.51,12.84-10.61,43.76-10.61,43.76l-22.5,8.15c-19-3.07-31.68-1.95-31.68-1.95l-26.75-.49s-33.84,8.91-40.13,14.72-50.52,55.05-50.76,61.83,41.79,39.21,41.79,39.21l4.36-10.41s-6.29-16.83-18.37-30.31l29.11-17.57c1.45,18.23,1.55,25.52,2.89,42.68a307.57,307.57,0,0,1-1.43,57.42c49.65,16.46,96.33-1.09,96.33-1.09s-5.87-28.63-7.31-57.28,8.93-55.77,8.93-55.77,35.6-27.11,36.44-35.9S269.22,209,269.22,209l.75-8.67Z" transform="translate(-24.86 -31.66)"/><path class="cls-23" d="M256.71,257.36c-2.93,5.9-30.86,27.3-34.08,29-8,4.14-9,10.92-8.79,19.32.19,6.93,1.28,13.79,1.49,20.72.4,12.94.87,26.47,5.3,38.6-.51-5.18-.94-10.54-1.21-15.9-1.43-28.64,8.93-55.77,8.93-55.77s35.6-27.11,36.44-35.9S269.22,209,269.22,209l.75-8.67-1.66-.52C267.48,204.42,259.07,252.62,256.71,257.36Z" transform="translate(-24.86 -31.66)"/><path class="cls-23" d="M148.49,412.06c-5.71-9.54-7.26-19.69-8.17-31.25C139,364.06,139,347.29,138,330.54a208.26,208.26,0,0,1-.62-21.49c.24-5.25.56-10.61-.48-15.75-7,6-15.75,9.79-23.4,14.82-6.49,4.27-17.44,7.64-21,15.05s7,17,11.64,21.61c4.26,4.29,9,8.35,13,13l1.08-2.58s-6.29-16.83-18.37-30.31l29.11-17.57c1.45,18.23,1.55,25.52,2.89,42.68a307.57,307.57,0,0,1-1.43,57.42A135.4,135.4,0,0,0,148.49,412.06Z" transform="translate(-24.86 -31.66)"/><path class="cls-23" d="M200.32,387.66s-36.79,5.88-56-11.6C144.33,376.06,159.23,406.86,200.32,387.66Z" transform="translate(-24.86 -31.66)"/><path class="cls-23" d="M191.54,255.14a22.38,22.38,0,0,1-8.13,3.72,29.88,29.88,0,0,1-9,.88,30.89,30.89,0,0,1-8.84-1.79,29,29,0,0,1-4.11-1.81,34.33,34.33,0,0,1-3.75-2.43c1.47.34,2.83.86,4.24,1.22s2.77.78,4.18,1l2.1.43,2.1.3c.7.12,1.4.18,2.11.24s1.4.17,2.11.15l2.11.09c.7,0,1.41,0,2.12,0,1.41,0,2.82-.17,4.24-.31A54,54,0,0,0,191.54,255.14Z" transform="translate(-24.86 -31.66)"/><path class="cls-24" d="M120.39,443.7c.63-3.26,4.47-14.39,4.12-17.68a25.2,25.2,0,0,0-4.25-11.52c-8.3-12.2-12.16-10-14.83-18.66-10.63-34.35-29.12-20-45-34.33,0,0-2.27,20.42.37,23.81a13.9,13.9,0,0,0,7.9,4.84A5.11,5.11,0,0,1,72.31,393c1.56,3.26.39,5.58-2,7.29a10.84,10.84,0,0,0-4.25,11.57c2.7,9.74,9.45,15,18.32,15.33,11.83.46-9.69,54,43.74,39,0,0,16.29-13.33,2.78-34.07C131,434.14,119.79,446.76,120.39,443.7Zm-14.6-3.13a2.45,2.45,0,0,1-3.22,1.16,32,32,0,0,0-4.1-1.46,2.48,2.48,0,0,1-1.94-2.81,2.42,2.42,0,0,1,2.81-1.94,40.72,40.72,0,0,1,5.28,1.84A2.46,2.46,0,0,1,105.79,440.57Zm-11-47.43c.08,3.1-4.74,3.5-4.82.38a19.67,19.67,0,0,0-.69-5.77c-1-2.94,3.55-4.59,4.54-1.64A23.5,23.5,0,0,1,94.84,393.14Z" transform="translate(-24.86 -31.66)"/><path class="cls-22" d="M60.39,361.72c-.23,2.2-2.08,20.41.4,23.6a13.9,13.9,0,0,0,7.9,4.84A5.11,5.11,0,0,1,72.31,393c1.56,3.26.39,5.58-2,7.29a10.84,10.84,0,0,0-4.25,11.57c2.7,9.74,9.45,15,18.32,15.33,11.83.46-9.69,54,43.74,39C128.16,466.26,96.71,396.76,60.39,361.72Zm45.4,78.85a2.45,2.45,0,0,1-3.22,1.16,32,32,0,0,0-4.1-1.46,2.48,2.48,0,0,1-1.94-2.81,2.42,2.42,0,0,1,2.81-1.94,40.72,40.72,0,0,1,5.28,1.84A2.46,2.46,0,0,1,105.79,440.57Z" transform="translate(-24.86 -31.66)"/><path class="cls-25" d="M147.55,513.38c-.41-1.13-26.09-79.08-66.91-128.32" transform="translate(-24.86 -31.66)"/><path class="cls-25" d="M96.46,406.53s-12.66,1.75-20.64-1" transform="translate(-24.86 -31.66)"/><path class="cls-25" d="M110,409.42s-1.29,6-5.6,9.64" transform="translate(-24.86 -31.66)"/><path class="cls-25" d="M104.38,450.55a28.12,28.12,0,0,0,18.45,2.94" transform="translate(-24.86 -31.66)"/><path class="cls-25" d="M130.25,444.65s1,7.27-4.51,15" transform="translate(-24.86 -31.66)"/><path class="cls-24" d="M362.08,389.37c7.84-34.51,27.59-52.54,17.14-59.8-10.66-7.4-44,19.7-45.65,43.87-.82,5.65.58,13.14-1.44,10.65-6.39-7.91-6-13.34-8-24.45a7.09,7.09,0,0,0-4.74-5.61c-2.75-.83-5.78.14-9.07,3.9-9,10.27-7.27,28.16-1.59,54.94a11.35,11.35,0,0,0-4.84-4.4c-3.44-1.52-9.83-4.29-12.64-.26-2.46,3.53-.83,9.8-.17,13.62,2.24,13,13.14,20.34,22,29.1a55.5,55.5,0,0,1,5.84,6.65c3.14,4.29,4.7,11.39,11,11.91a59.58,59.58,0,0,0,12.66-.54c6-.78,10.83-3.91,12-10.17.51-2.66,15.37-11.91,18.85-13.87,24-13.59.36-25.28-14.91-11.62,12-20.62,19.5-25.09,25.34-31.9C417.33,373.13,392.37,355.67,362.08,389.37Zm-1.59-29.28a33.87,33.87,0,0,1,6.87-8.12,2.53,2.53,0,0,1,3.49.61,2.57,2.57,0,0,1-.61,3.48,26.58,26.58,0,0,0-5.24,6.19,2.55,2.55,0,0,1-3.33,1.17A2.52,2.52,0,0,1,360.49,360.09ZM316.36,400.7A37.18,37.18,0,0,1,311.82,385c-.13-3.21,4.85-3.63,5-.41A34,34,0,0,0,321.06,399C322.54,401.84,317.82,403.52,316.36,400.7Zm50.8,15.12a26,26,0,0,0-4.42,3.83c-2.11,2.43-5.93-.8-3.82-3.23a31.59,31.59,0,0,1,5.37-4.69C366.91,409.84,369.77,413.94,367.16,415.82Z" transform="translate(-24.86 -31.66)"/><path class="cls-22" d="M378.43,329.13c-11.41-5.69-43.21,20.7-44.86,44.31-.82,5.65.58,13.14-1.44,10.65-6.39-7.91-6-13.34-8-24.45a7.09,7.09,0,0,0-4.74-5.61c-2.75-.83-5.78.14-9.07,3.9-9,10.27-7.27,28.16-1.59,54.94a11.35,11.35,0,0,0-4.84-4.4c-3.44-1.52-9.83-4.29-12.64-.26-2.46,3.53-.83,9.8-.17,13.62,2.24,13,13.14,20.34,22,29.1a55.5,55.5,0,0,1,5.84,6.65c3.14,4.29,4.7,11.39,11,11.91.82.07,1.64.11,2.47.13C330.61,462.37,335,366.15,378.43,329.13ZM316.36,400.7A37.18,37.18,0,0,1,311.82,385c-.13-3.21,4.85-3.63,5-.41A34,34,0,0,0,321.06,399C322.54,401.84,317.82,403.52,316.36,400.7Z" transform="translate(-24.86 -31.66)"/><path class="cls-8" d="M371.79,337.63a33,33,0,0,0-5.75,5.82l-1.29,1.62c-.44.54-.8,1.13-1.21,1.69l-1.18,1.7-.59.86-.54.88-2.14,3.56c-.72,1.19-1.3,2.45-2,3.67s-1.32,2.44-1.89,3.71l-1.71,3.79c-.54,1.28-1.18,2.52-1.66,3.82l-1.49,3.89-1.49,3.89-1.3,4-1.29,4c-.43,1.32-.87,2.64-1.21,4l-2.19,8.05-.55,2-.46,2L341,404.6c-.59,2.72-1.26,5.42-1.78,8.15L337.72,421c-.47,2.74-1.05,5.46-1.39,8.23l-1.15,8.26-.58,4.13-.28,2.07-.22,2.08-1.69,16.6v0a.7.7,0,0,1-1.39-.14h0l1.76-16.64.22-2.08.29-2.07.59-4.15,1.19-8.28c.34-2.77.93-5.5,1.41-8.25L338,412.5c.54-2.73,1.22-5.44,1.82-8.17l.93-4.08.46-2,.56-2,2.22-8.08c.35-1.35.79-2.67,1.24-4l1.3-4,1.32-4,1.52-3.91,1.51-3.91c.49-1.31,1.13-2.55,1.69-3.84l1.73-3.82c.58-1.27,1.28-2.48,1.91-3.73s1.27-2.5,2-3.69l2.18-3.6.55-.89.6-.87,1.21-1.72c.41-.57.78-1.16,1.22-1.71l1.32-1.64a33.46,33.46,0,0,1,6-6,.49.49,0,0,1,.68.1.48.48,0,0,1-.1.68Z" transform="translate(-24.86 -31.66)"/><path class="cls-26" d="M318.38,380.29s13.08,16,18.11,43.64" transform="translate(-24.86 -31.66)"/><path class="cls-26" d="M387.81,380.61s-30.3,12.37-53.2,55.6" transform="translate(-24.86 -31.66)"/><path class="cls-26" d="M372.17,437.45S353,439,332.92,456.67" transform="translate(-24.86 -31.66)"/><path class="cls-26" d="M301.25,417.71s17.08,11.69,30.29,42.09" transform="translate(-24.86 -31.66)"/><path class="cls-24" d="M233.53,423.69c-1.48-4.37-8.82-19-8.94-23.59a35.13,35.13,0,0,1,3.74-16.65c9.19-18.32,14.9-16,17-28.42,8.31-49.25,36.42-32.88,55.66-55.55,0,0,6.88,27.7,3.87,32.87a19.31,19.31,0,0,1-10,8.11,7.11,7.11,0,0,0-4.45,4.61c-1.56,4.78.48,7.76,4,9.68a15.06,15.06,0,0,1,8,15.16c-1.91,13.91-10.25,22.36-22.4,24.47-16.21,2.82,23.27,72.54-53,61.81,0,0-24.89-15.37-10.11-46.41C217.18,412.47,234.91,427.8,233.53,423.69Zm19.52-7a3.39,3.39,0,0,0,4.64,1,45.62,45.62,0,0,1,5.38-2.76,3.46,3.46,0,0,0,2.16-4.23c-.45-1.61-2.63-2.89-4.23-2.16a59.24,59.24,0,0,0-6.93,3.51A3.4,3.4,0,0,0,253.05,416.69Zm6.35-67.32c.46,4.28,7.17,3.94,6.71-.36a27,27,0,0,1-.11-8.07c.82-4.24-5.73-5.67-6.56-1.43A32.92,32.92,0,0,0,259.4,349.37Z" transform="translate(-24.86 -31.66)"/><path class="cls-22" d="M227.51,456.26c1.82-22.65,39.21-111.49,70.41-153.56-19.05,17.92-44.72,5.63-52.6,52.33-2.09,12.38-7.8,10.1-17,28.42a35.13,35.13,0,0,0-3.74,16.65c.12,4.59,7.46,19.22,8.94,23.59,1.38,4.11-16.35-11.22-16.66-13.91-14.78,31,10.11,46.41,10.11,46.41Zm31.93-116.75c.83-4.24,7.38-2.81,6.56,1.43a27,27,0,0,0,.11,8.07c.46,4.3-6.25,4.64-6.71.36A32.92,32.92,0,0,1,259.44,339.51Z" transform="translate(-24.86 -31.66)"/><path class="cls-27" d="M208.94,524.64c.35-1.63,21.38-113.7,68.53-189" transform="translate(-24.86 -31.66)"/><path class="cls-27" d="M259.63,368.1s17.76.09,28.24-5.13" transform="translate(-24.86 -31.66)"/><path class="cls-27" d="M241.59,374.57s2.88,8.07,9.48,12.24" transform="translate(-24.86 -31.66)"/><path class="cls-27" d="M256.82,430.17s-10.52,8.42-24.87,7.45" transform="translate(-24.86 -31.66)"/><path class="cls-27" d="M220.12,426.81s0,10.2,8.95,19.77" transform="translate(-24.86 -31.66)"/></g><path class="cls-28" d="M429.39,228.3l-79.57.62a497.76,497.76,0,0,1,0-93.6l79.57.62A429.48,429.48,0,0,0,429.39,228.3Z" transform="translate(-24.86 -31.66)"/><path class="cls-5" d="M433.39,224.3l-79.57.62a497.76,497.76,0,0,1,0-93.6l79.57.62A429.48,429.48,0,0,0,433.39,224.3Z" transform="translate(-24.86 -31.66)"/><path class="cls-9" d="M382,142.64l-22.29-.13c.05-.62.09-1.24.14-1.86l22.3.13Z" transform="translate(-24.86 -31.66)"/><path class="cls-9" d="M422.81,155.19,359,154.94l.09-1.86,63.87.27C422.88,154,422.84,154.57,422.81,155.19Z" transform="translate(-24.86 -31.66)"/><path class="cls-9" d="M422.34,167.46l-63.83-.11c0-.62,0-1.24.05-1.86l63.82.13C422.37,166.23,422.35,166.85,422.34,167.46Z" transform="translate(-24.86 -31.66)"/><path class="cls-9" d="M422.21,179.72H358.4v-1.85h63.8C422.2,178.49,422.2,179.1,422.21,179.72Z" transform="translate(-24.86 -31.66)"/><path class="cls-9" d="M422.43,192l-63.83.14c0-.62,0-1.23-.05-1.85l63.82-.13Z" transform="translate(-24.86 -31.66)"/><path class="cls-9" d="M423,204.25l-63.88.28c0-.62-.07-1.24-.1-1.86l63.88-.26C422.92,203,423,203.64,423,204.25Z" transform="translate(-24.86 -31.66)"/><path class="cls-9" d="M423.91,216.56l-64,.41-.15-1.86,64-.39C423.8,215.33,423.85,216,423.91,216.56Z" transform="translate(-24.86 -31.66)"/><path class="cls-28" d="M446.72,327.64,371,352.09a497.74,497.74,0,0,1-28.06-89.29L419,239.53A429.17,429.17,0,0,0,446.72,327.64Z" transform="translate(-24.86 -31.66)"/><path class="cls-5" d="M449.33,322.63l-75.72,24.44a497.77,497.77,0,0,1-28.07-89.29l76.1-23.27A428.62,428.62,0,0,0,449.33,322.63Z" transform="translate(-24.86 -31.66)"/><path class="cls-9" d="M375.81,260.14,354.5,266.7c-.14-.61-.28-1.22-.43-1.83l21.32-6.55C375.52,258.93,375.67,259.53,375.81,260.14Z" transform="translate(-24.86 -31.66)"/><path class="cls-9" d="M418.52,259.86l-61,18.92c-.16-.6-.32-1.2-.47-1.8l61-18.9C418.21,258.67,418.36,259.27,418.52,259.86Z" transform="translate(-24.86 -31.66)"/><path class="cls-9" d="M421.74,271.71l-60.92,19-.51-1.79,60.93-19C421.4,270.53,421.57,271.12,421.74,271.71Z" transform="translate(-24.86 -31.66)"/><path class="cls-9" d="M425.29,283.45l-60.86,19.14c-.19-.59-.38-1.18-.56-1.77l60.87-19.13C424.92,282.28,425.11,282.86,425.29,283.45Z" transform="translate(-24.86 -31.66)"/><path class="cls-9" d="M429.18,295.08l-60.85,19.27-.6-1.75,60.85-19.26Z" transform="translate(-24.86 -31.66)"/><path class="cls-9" d="M433.4,306.62,372.54,326c-.22-.58-.43-1.17-.65-1.75l60.86-19.4C433,305.47,433.18,306,433.4,306.62Z" transform="translate(-24.86 -31.66)"/><path class="cls-9" d="M438,318.09l-60.91,19.57c-.23-.58-.46-1.16-.7-1.74l60.9-19.55C437.49,317,437.73,317.52,438,318.09Z" transform="translate(-24.86 -31.66)"/></g></g></svg>