<svg xmlns="http://www.w3.org/2000/svg" width="333.23" height="711.483" viewBox="0 0 333.23 711.483">
  <path id="keynote-path" d="M-234.934,827.317h-.022a98.941,98.941,0,0,1-23.42-2.9,123.11,123.11,0,0,1-22.873-8.177,165.492,165.492,0,0,1-22.192-12.7,226.851,226.851,0,0,1-21.378-16.473c-24.687-21.36-49.826-51.141-74.72-88.516-9.78-14.684-19.545-30.589-29.023-47.273-7.583-13.347-15-27.222-22.047-41.237-11.965-23.8-18.845-40.069-18.913-40.231a59.451,59.451,0,0,1-2.632-5.979,129.046,129.046,0,0,1-5.308-17.551,178.792,178.792,0,0,1-4.1-28.544,224.724,224.724,0,0,1,.985-38.959c3.733-34.042,14.753-69.99,32.755-106.847,5.2-10.654,11.069-21.527,17.433-32.317,6.7-11.358,14.135-22.937,22.1-34.414,8.355-12.038,17.524-24.3,27.254-36.44,10.171-12.693,21.238-25.61,32.892-38.392,7.813-8.569,15.943-16.8,24.165-24.471,7.988-7.451,16.281-14.572,24.649-21.168,8.118-6.4,16.529-12.477,25-18.066,8.205-5.414,16.689-10.517,25.215-15.165a339.628,339.628,0,0,1,50.544-22.429,343.147,343.147,0,0,1,49.806-13.236V795.482c-16.227,8.668-32.087,16.492-47.142,23.256a99.156,99.156,0,0,1-19.614,6.5A91.989,91.989,0,0,1-234.934,827.317Z" transform="translate(481.999 -115.834)" fill="#fec949" opacity="0.32"/>
</svg>
