<svg xmlns="http://www.w3.org/2000/svg" width="318.626" height="322.153" viewBox="0 0 318.626 322.153">
  <path id="Subtraction_2" data-name="Subtraction 2" d="M375.549,487.653h0c-15.9,0-33.986-3.119-53.769-9.269a356.207,356.207,0,0,1-50.348-20.392c-15.645-7.663-28.91-15.319-37.283-20.392-9.111-5.52-14.522-9.235-14.571-9.269a4.434,4.434,0,0,1-.8.058c-1.279,0-4-.348-7.832-2.68-4.73-2.877-9.631-7.81-14.567-14.662-6.519-9.05-13.008-21.355-19.286-36.574-7.639-18.515-15.036-41.533-21.988-68.415a100.992,100.992,0,0,1-3.224-23.9,104.962,104.962,0,0,1,2.342-23.251,124.578,124.578,0,0,1,7.169-22.483,159.468,159.468,0,0,1,11.255-21.589A215.228,215.228,0,0,1,190.579,190.2,299.017,299.017,0,0,1,213.9,165.5H470.5V427.515c-14.208,17.213-28.321,31.7-41.947,43.054a68.185,68.185,0,0,1-11.723,7.857,73.669,73.669,0,0,1-12.889,5.3A97.164,97.164,0,0,1,375.549,487.653Z" transform="translate(-151.874 -165.5)" fill="#fec949" opacity="0.32"/>
</svg>
