<svg xmlns="http://www.w3.org/2000/svg" viewBox="0 0 650.41 393.84"><defs><style>.cls-1,.cls-2{fill:#ecf1f7;}.cls-1{opacity:0.47;}.cls-2{opacity:0.81;}.cls-19,.cls-3{fill:#3e479b;}.cls-18,.cls-27,.cls-3,.cls-4{opacity:0.58;}.cls-15,.cls-16,.cls-37,.cls-4{fill:#ef929c;}.cls-18,.cls-22,.cls-5{fill:#fff;}.cls-6{opacity:0.36;}.cls-20,.cls-26,.cls-32,.cls-7{fill:#599af2;}.cls-8{opacity:0.18;}.cls-17,.cls-24,.cls-25,.cls-30,.cls-36,.cls-38,.cls-9{fill:none;stroke-miterlimit:10;}.cls-30,.cls-9{stroke:#4c65ba;}.cls-10,.cls-11,.cls-13,.cls-27{fill:#fec949;}.cls-11,.cls-14{opacity:0.54;}.cls-12{opacity:0.98;}.cls-13{opacity:0.5;}.cls-16{opacity:0.43;}.cls-17,.cls-25{stroke:#fff;}.cls-17,.cls-24,.cls-25,.cls-30,.cls-36,.cls-38{stroke-linecap:round;}.cls-20{opacity:0.8;}.cls-21{fill:#4c65ba;}.cls-22{opacity:0.55;}.cls-23{fill:#373449;}.cls-24{stroke:#373449;}.cls-24,.cls-25,.cls-30{stroke-width:2px;}.cls-26{opacity:0.66;}.cls-28{opacity:0.68;}.cls-29{opacity:0.89;}.cls-31{opacity:0.77;}.cls-32,.cls-33{opacity:0.39;}.cls-34{fill:#f9dcd2;}.cls-35{fill:#ffa06e;}.cls-36{stroke:#ecf1f7;opacity:0.31;}.cls-37{opacity:0.37;}.cls-38{stroke:#ef929c;stroke-width:0.5px;}</style></defs><title>Clock-edit</title><g id="BACKGROUND"><path class="cls-1" d="M57.52,320.5a16.31,16.31,0,0,0-10.77,20.4c2.66,8.61,13.64,19.41,22.24,16.75s4.91-16.29,6.74-25.11C78.28,320.24,66.12,317.84,57.52,320.5Z" transform="translate(-46.02 -28.16)"/><path class="cls-1" d="M155,50.75a24.7,24.7,0,0,0-33.44-10.09c-12,6.45-24.9,25.91-18.45,37.93s25.64,2.57,39.28,2.73C161.43,81.54,161.47,62.77,155,50.75Z" transform="translate(-46.02 -28.16)"/><path class="cls-1" d="M687,388.54c8.53-13.57,10.67-30.41,8.89-46.34a152.54,152.54,0,0,0-13.39-46.84c-6.42-13.65-15.71-25.82-18.36-41-3.5-20.08,5.66-39.39,7.79-59.09,4.24-39.22-22.27-73.77-55.14-92.43C590,87.66,558.72,82,528,82.38c-27.63.37-55.22,5.27-82,11.86-25.81,6.35-51,14.72-78.09,12.08-22.49-2.19-42.75-11.54-63.7-18.51-50-16.63-110.61-19-156.34,6.35-29.36,16.25-49.9,42.64-59,71-6.68,20.79-8.66,44.69-3.77,65.72,5.5,23.63,15.65,44.45,13,69.35-2.2,20.43-9.7,40.34-9,61.07.57,17.81,7.24,35.62,17.62,50a23.19,23.19,0,0,0,2.18,2.66H657.78C669.28,407.81,680,399.59,687,388.54Z" transform="translate(-46.02 -28.16)"/><path class="cls-2" d="M616.48,374.94c1.94-15.13-2.61-29.19-2-43.9,1.14-28.29,27.13-47.82,36.19-73.25,11.46-32.21,10.91-68.29-3-99.67C640.94,143,631.13,129,617.74,119.23c-20.64-15-47.68-18.27-73.12-16.37-37.85,2.83-77.79,18.57-115.85,14.28-21-2.37-27.42-24.21-38.26-38.62-12.27-16.29-29-29.09-47.45-37.61C309,25.22,268.21,23.74,233.45,38,196.32,53.15,164,90.25,166.1,132.19c1,19.41,9.07,38.69,5.32,57.75-4.7,23.93-23.46,45.74-37.06,65.24A145.31,145.31,0,0,0,129.3,414H603.43A105.68,105.68,0,0,0,616.48,374.94Z" transform="translate(-46.02 -28.16)"/><circle class="cls-3" cx="641.48" cy="235.34" r="4.5"/><circle class="cls-4" cx="609.48" cy="360.34" r="3.5"/><circle class="cls-4" cx="66.48" cy="79.34" r="4.5"/><circle class="cls-3" cx="32.48" cy="248.34" r="3.5"/><circle class="cls-3" cx="37.48" cy="101.34" r="1.5"/><path class="cls-4" d="M455.46,62.22a5.4,5.4,0,1,1-4.16-6.42A5.39,5.39,0,0,1,455.46,62.22Z" transform="translate(-46.02 -28.16)"/><path class="cls-3" d="M412.36,80A1.8,1.8,0,1,1,411,77.89,1.8,1.8,0,0,1,412.36,80Z" transform="translate(-46.02 -28.16)"/></g><g id="OBJECTS"><path class="cls-5" d="M273.35,187h-14a5.22,5.22,0,0,1-5.21-5.22V171a45.83,45.83,0,0,1-10.64-4.42l-7.63,7.63a5.21,5.21,0,0,1-7.38,0l-9.86-9.86a5.22,5.22,0,0,1,0-7.37l7.63-7.64a45.2,45.2,0,0,1-4.41-10.64H211.1a5.22,5.22,0,0,1-5.21-5.21v-14a5.22,5.22,0,0,1,5.21-5.22h10.79a45.55,45.55,0,0,1,4.41-10.64L218.67,96a5.22,5.22,0,0,1,0-7.37l9.86-9.87a5.23,5.23,0,0,1,7.38,0l7.63,7.63A46.24,46.24,0,0,1,254.18,82V71.21A5.22,5.22,0,0,1,259.39,66h14a5.22,5.22,0,0,1,5.21,5.21V82a46,46,0,0,1,10.64,4.41l7.63-7.63a5.22,5.22,0,0,1,7.37,0l9.87,9.87a5.22,5.22,0,0,1,0,7.37l-7.63,7.63a45.55,45.55,0,0,1,4.41,10.64h10.79a5.22,5.22,0,0,1,5.21,5.22v14a5.22,5.22,0,0,1-5.21,5.21H310.85a45.2,45.2,0,0,1-4.41,10.64l7.63,7.64a5.22,5.22,0,0,1,0,7.37l-9.87,9.86a5.2,5.2,0,0,1-7.37,0l-7.63-7.63A46,46,0,0,1,278.56,171v10.78A5.22,5.22,0,0,1,273.35,187Zm-30.19-23.39.79.47a43.35,43.35,0,0,0,11.7,4.85l.9.23v12.62a2.84,2.84,0,0,0,2.84,2.84h14a2.84,2.84,0,0,0,2.84-2.84V169.13l.89-.23a43.09,43.09,0,0,0,11.7-4.85l.8-.47,8.93,8.93a2.85,2.85,0,0,0,4,0l9.86-9.87a2.84,2.84,0,0,0,0-4l-8.93-8.93.48-.79a43.86,43.86,0,0,0,4.85-11.7l.22-.9h12.63a2.84,2.84,0,0,0,2.84-2.84v-14a2.84,2.84,0,0,0-2.84-2.84H309l-.22-.9a43.73,43.73,0,0,0-4.85-11.7l-.48-.8,8.93-8.93a2.84,2.84,0,0,0,0-4l-9.86-9.86a2.84,2.84,0,0,0-4,0l-8.93,8.93-.8-.47a43.43,43.43,0,0,0-11.7-4.86l-.89-.22V71.21a2.85,2.85,0,0,0-2.84-2.84h-14a2.84,2.84,0,0,0-2.84,2.84V83.84l-.9.22A43.7,43.7,0,0,0,244,88.92l-.79.47-8.93-8.93a2.84,2.84,0,0,0-4,0l-9.86,9.86a2.84,2.84,0,0,0,0,4l8.93,8.93-.48.8a43.41,43.41,0,0,0-4.85,11.7l-.23.9H211.1a2.84,2.84,0,0,0-2.84,2.84v14a2.84,2.84,0,0,0,2.84,2.84h12.62l.23.9a43.54,43.54,0,0,0,4.85,11.7l.48.79-8.93,8.93a2.84,2.84,0,0,0,0,4l9.86,9.87a2.86,2.86,0,0,0,4,0Zm23.21-4.12a33,33,0,1,1,33-33A33,33,0,0,1,266.37,159.46Zm0-63.58a30.6,30.6,0,1,0,30.6,30.6A30.63,30.63,0,0,0,266.37,95.88Z" transform="translate(-46.02 -28.16)"/><path class="cls-5" d="M253.76,220.89l-5.85-3.17a25.52,25.52,0,0,0,.77-7.35l6.37-1.89a2.3,2.3,0,0,0,1.54-2.85l-2.26-7.6a2.28,2.28,0,0,0-2.84-1.54l-6.38,1.9a25,25,0,0,0-4.65-5.74l3.16-5.85a2.29,2.29,0,0,0-.92-3.1l-7-3.77a2.28,2.28,0,0,0-3.1.92l-3.17,5.84a25.47,25.47,0,0,0-7.35-.76l-1.89-6.37a2.29,2.29,0,0,0-2.85-1.54l-7.59,2.25a2.29,2.29,0,0,0-1.55,2.85l1.9,6.37a25.51,25.51,0,0,0-5.74,4.66L198.54,191a2.28,2.28,0,0,0-3.1.93l-3.77,7a2.3,2.3,0,0,0,.92,3.11l5.84,3.16a25.51,25.51,0,0,0-.76,7.35l-6.37,1.9a2.28,2.28,0,0,0-1.54,2.84l2.26,7.6a2.28,2.28,0,0,0,2.84,1.54l6.38-1.89a25.2,25.2,0,0,0,4.65,5.74l-3.16,5.84a2.28,2.28,0,0,0,.92,3.1l7,3.78a2.29,2.29,0,0,0,3.1-.92l3.16-5.85a25.23,25.23,0,0,0,7.36.76l1.89,6.38a2.29,2.29,0,0,0,2.85,1.54l7.59-2.26a2.29,2.29,0,0,0,1.54-2.85l-1.89-6.37a25.74,25.74,0,0,0,5.74-4.65l5.84,3.16a2.3,2.3,0,0,0,3.11-.92l3.77-7A2.29,2.29,0,0,0,253.76,220.89Zm-39.19,6.42A18.06,18.06,0,1,1,239.05,220,18.06,18.06,0,0,1,214.57,227.31Z" transform="translate(-46.02 -28.16)"/><g class="cls-6"><path class="cls-7" d="M209.05,167.58l-4.5-2.44a19.45,19.45,0,0,0,.59-5.66l4.91-1.46a1.75,1.75,0,0,0,1.18-2.19L209.49,150a1.75,1.75,0,0,0-2.19-1.19l-4.9,1.46a19.62,19.62,0,0,0-3.58-4.42l2.43-4.5a1.74,1.74,0,0,0-.71-2.38l-5.36-2.91a1.77,1.77,0,0,0-2.39.71l-2.43,4.5a19.48,19.48,0,0,0-5.66-.59l-1.46-4.9a1.77,1.77,0,0,0-2.19-1.19l-5.85,1.74a1.76,1.76,0,0,0-1.18,2.19l1.46,4.9a19.45,19.45,0,0,0-4.42,3.59l-4.5-2.44a1.77,1.77,0,0,0-2.39.71l-2.9,5.36A1.76,1.76,0,0,0,162,153l4.5,2.44a19.41,19.41,0,0,0-.59,5.66L161,162.57a1.76,1.76,0,0,0-1.18,2.19l1.74,5.85a1.76,1.76,0,0,0,2.19,1.19l4.9-1.46a19.62,19.62,0,0,0,3.58,4.42l-2.43,4.49a1.76,1.76,0,0,0,.71,2.39l5.36,2.9a1.76,1.76,0,0,0,2.39-.7l2.43-4.5a19.82,19.82,0,0,0,5.66.58l1.46,4.91A1.77,1.77,0,0,0,190,186l5.85-1.74a1.76,1.76,0,0,0,1.18-2.19l-1.46-4.91A19.4,19.4,0,0,0,200,173.6l4.5,2.44a1.77,1.77,0,0,0,2.39-.71l2.9-5.37A1.75,1.75,0,0,0,209.05,167.58Zm-30.15,4.94a13.9,13.9,0,1,1,18.83-5.6A13.89,13.89,0,0,1,178.9,172.52Z" transform="translate(-46.02 -28.16)"/></g><g class="cls-8"><path class="cls-9" d="M380,104.47l-5.55-3a23.9,23.9,0,0,0,.72-7l6.05-1.8a2.18,2.18,0,0,0,1.47-2.7l-2.15-7.21a2.18,2.18,0,0,0-2.7-1.47l-6.05,1.8a24.14,24.14,0,0,0-4.42-5.45l3-5.54a2.18,2.18,0,0,0-.88-3l-6.61-3.58a2.17,2.17,0,0,0-2.94.88l-3,5.54a24.35,24.35,0,0,0-7-.72l-1.79-6.05a2.17,2.17,0,0,0-2.7-1.46l-7.21,2.14a2.18,2.18,0,0,0-1.47,2.7l1.8,6a24.24,24.24,0,0,0-5.45,4.42l-5.54-3a2.18,2.18,0,0,0-2.95.87l-3.58,6.62a2.17,2.17,0,0,0,.88,2.94l5.54,3a24,24,0,0,0-.72,7l-6.05,1.8a2.17,2.17,0,0,0-1.46,2.7l2.14,7.21a2.17,2.17,0,0,0,2.7,1.46l6.05-1.8a24,24,0,0,0,4.42,5.45l-3,5.55a2.17,2.17,0,0,0,.88,2.94L339,125.4a2.18,2.18,0,0,0,3-.88l3-5.55a24.36,24.36,0,0,0,7,.73l1.8,6a2.17,2.17,0,0,0,2.7,1.46l7.21-2.15a2.17,2.17,0,0,0,1.46-2.7l-1.8-6a23.93,23.93,0,0,0,5.45-4.41l5.55,3a2.17,2.17,0,0,0,2.94-.87l3.58-6.62A2.17,2.17,0,0,0,380,104.47Zm-37.19,6.09a17.14,17.14,0,1,1,23.23-6.9A17.14,17.14,0,0,1,342.79,110.56Z" transform="translate(-46.02 -28.16)"/></g><rect class="cls-5" x="79.48" y="213.13" width="171.5" height="125.21" rx="8.38"/><path class="cls-10" d="M125.5,275.88V247.65a6.36,6.36,0,0,1,6.36-6.36H290.64a6.36,6.36,0,0,1,6.36,6.36v27.56Z" transform="translate(-46.02 -28.16)"/><rect class="cls-10" x="92.76" y="254.49" width="18.97" height="15.18"/><rect class="cls-11" x="92.76" y="281.05" width="18.97" height="15.18"/><rect class="cls-11" x="92.76" y="306.85" width="18.97" height="15.18"/><rect class="cls-11" x="125.39" y="254.49" width="18.97" height="15.18"/><rect class="cls-10" x="125.39" y="281.05" width="18.97" height="15.18"/><rect class="cls-11" x="125.39" y="306.85" width="18.97" height="15.18"/><g class="cls-12"><rect class="cls-13" x="157.27" y="254.49" width="18.97" height="15.18"/><rect class="cls-13" x="157.27" y="281.05" width="18.97" height="15.18"/><rect class="cls-10" x="157.27" y="306.85" width="18.97" height="15.18"/></g><g class="cls-14"><rect class="cls-15" x="189.9" y="254.49" width="18.97" height="15.18"/><rect class="cls-15" x="189.9" y="281.05" width="18.97" height="15.18"/><rect class="cls-15" x="189.9" y="306.85" width="18.97" height="15.18"/></g><rect class="cls-16" x="221.01" y="254.49" width="18.97" height="15.18"/><rect class="cls-15" x="221.01" y="281.05" width="18.97" height="15.18"/><rect class="cls-16" x="221.01" y="306.85" width="18.97" height="15.18"/><circle class="cls-17" cx="135.98" cy="261.84" r="6"/><line class="cls-17" x1="133.22" y1="257.34" x2="138.25" y2="265.84"/><line class="cls-17" x1="139.98" y1="259.08" x2="131.48" y2="264.1"/><circle class="cls-18" cx="100.49" cy="226.03" r="7.59"/><path class="cls-19" d="M146.51,256.92h0a3.35,3.35,0,0,1-3.34-3.34V231.73a3.35,3.35,0,0,1,3.34-3.34h0a3.35,3.35,0,0,1,3.34,3.34v21.85A3.35,3.35,0,0,1,146.51,256.92Z" transform="translate(-46.02 -28.16)"/><circle class="cls-18" cx="122.96" cy="226.03" r="7.59"/><path class="cls-19" d="M169,256.92h0a3.35,3.35,0,0,1-3.34-3.34V231.73a3.35,3.35,0,0,1,3.34-3.34h0a3.35,3.35,0,0,1,3.34,3.34v21.85A3.35,3.35,0,0,1,169,256.92Z" transform="translate(-46.02 -28.16)"/><circle class="cls-18" cx="144.15" cy="226.03" r="7.59"/><path class="cls-19" d="M190.17,256.92h0a3.35,3.35,0,0,1-3.34-3.34V231.73a3.35,3.35,0,0,1,3.34-3.34h0a3.35,3.35,0,0,1,3.34,3.34v21.85A3.35,3.35,0,0,1,190.17,256.92Z" transform="translate(-46.02 -28.16)"/><circle class="cls-18" cx="166.63" cy="226.03" r="7.59"/><path class="cls-19" d="M212.64,256.92h0a3.35,3.35,0,0,1-3.34-3.34V231.73a3.35,3.35,0,0,1,3.34-3.34h0a3.35,3.35,0,0,1,3.34,3.34v21.85A3.35,3.35,0,0,1,212.64,256.92Z" transform="translate(-46.02 -28.16)"/><circle class="cls-18" cx="187.76" cy="226.03" r="7.59"/><path class="cls-19" d="M233.77,256.92h0a3.34,3.34,0,0,1-3.33-3.34V231.73a3.34,3.34,0,0,1,3.33-3.34h0a3.35,3.35,0,0,1,3.34,3.34v21.85A3.35,3.35,0,0,1,233.77,256.92Z" transform="translate(-46.02 -28.16)"/><circle class="cls-18" cx="210.23" cy="226.03" r="7.59"/><path class="cls-19" d="M256.25,256.92h0a3.35,3.35,0,0,1-3.34-3.34V231.73a3.35,3.35,0,0,1,3.34-3.34h0a3.35,3.35,0,0,1,3.34,3.34v21.85A3.35,3.35,0,0,1,256.25,256.92Z" transform="translate(-46.02 -28.16)"/><circle class="cls-18" cx="231.42" cy="226.03" r="7.59"/><path class="cls-19" d="M277.44,256.92h0a3.35,3.35,0,0,1-3.34-3.34V231.73a3.35,3.35,0,0,1,3.34-3.34h0a3.35,3.35,0,0,1,3.34,3.34v21.85A3.35,3.35,0,0,1,277.44,256.92Z" transform="translate(-46.02 -28.16)"/><ellipse class="cls-7" cx="183.14" cy="337.99" rx="44.62" ry="45.15"/><ellipse class="cls-5" cx="183.14" cy="337.99" rx="34.3" ry="34.7"/><rect class="cls-7" x="181.48" y="311.93" width="3.33" height="23.56" rx="0.9"/><rect class="cls-7" x="237.06" y="357.25" width="3.33" height="18.92" rx="0.9" transform="translate(559.42 99.84) rotate(90)"/><path class="cls-19" d="M234.15,366.15a5,5,0,1,1-5-5A5,5,0,0,1,234.15,366.15Z" transform="translate(-46.02 -28.16)"/><path class="cls-5" d="M133.88,194.11H94.64A1.63,1.63,0,0,0,93,195.75v28.61A1.63,1.63,0,0,0,94.64,226h39.24a1.64,1.64,0,0,0,1.65-1.64V195.75A1.64,1.64,0,0,0,133.88,194.11Z" transform="translate(-46.02 -28.16)"/><path class="cls-20" d="M109.53,208.37l4.31,2.26a.86.86,0,0,0,.81,0l19.11-11.25,1.44-.84a.77.77,0,0,1,.33-.12v-2.66a1.64,1.64,0,0,0-1.65-1.64H94.64A1.63,1.63,0,0,0,93,195.75V200l1,.53Z" transform="translate(-46.02 -28.16)"/><polygon class="cls-20" points="46.98 173.87 46.98 194.17 62.19 181.6 46.98 173.87"/><polygon class="cls-20" points="89.51 194.28 89.51 172.31 74.13 181.36 89.51 194.28"/><path class="cls-20" d="M134.46,223.94l-16-13.43-2.89,1.7a2.7,2.7,0,0,1-1.34.36,2.63,2.63,0,0,1-1.25-.31l-3-1.59a1,1,0,0,1-.14.15L93.93,224a.93.93,0,0,1-.59.21,1,1,0,0,1-.34-.07v.27A1.63,1.63,0,0,0,94.64,226h39.24a1.64,1.64,0,0,0,1.65-1.64V224a.92.92,0,0,1-.48.14A.88.88,0,0,1,134.46,223.94Z" transform="translate(-46.02 -28.16)"/><path class="cls-21" d="M135.53,198.41a.77.77,0,0,0-.33.12l-1.44.84-19.11,11.25a.86.86,0,0,1-.81,0l-4.31-2.26L94,200.49,93,200V202l15.2,7.73L93,222.33v1.76a1,1,0,0,0,.34.07.93.93,0,0,0,.59-.21l15.88-13.13a1,1,0,0,0,.14-.15l3,1.59a2.63,2.63,0,0,0,1.25.31,2.7,2.7,0,0,0,1.34-.36l2.89-1.7,16,13.43a.88.88,0,0,0,.59.22.92.92,0,0,0,.48-.14v-1.58l-15.38-12.92,15.38-9.05Z" transform="translate(-46.02 -28.16)"/><circle class="cls-19" cx="328.98" cy="237.84" r="156"/><circle class="cls-22" cx="328.98" cy="237.84" r="141.78"/><circle class="cls-5" cx="328.98" cy="237.84" r="127.31"/><rect class="cls-23" x="325.33" y="116.1" width="6.87" height="23.19" rx="3.31"/><rect class="cls-23" x="325.76" y="336.39" width="6.87" height="23.19" rx="3.31"/><rect class="cls-23" x="481.71" y="254.19" width="6.87" height="23.19" rx="3.31" transform="translate(704.92 -247.52) rotate(90)"/><rect class="cls-23" x="261.42" y="254.62" width="6.87" height="23.19" rx="3.31" transform="translate(485.05 -26.8) rotate(90)"/><rect class="cls-23" x="449.57" y="180.1" width="6.87" height="15.18" rx="3.31" transform="translate(219.51 -293.56) rotate(45.02)"/><rect class="cls-23" x="294.15" y="335.14" width="6.87" height="17.15" rx="3.31" transform="translate(284.31 -137.91) rotate(45.02)"/><rect class="cls-23" x="449.87" y="336.51" width="6.87" height="15.18" rx="3.31" transform="translate(971.17 238.89) rotate(135.02)"/><rect class="cls-23" x="293.85" y="180.12" width="6.87" height="17.15" rx="3.31" transform="translate(594.93 83.84) rotate(135.02)"/><rect class="cls-19" x="325.14" y="152.56" width="7.59" height="87.25" rx="3.65"/><rect class="cls-19" x="398.66" y="239.52" width="7.59" height="62.59" rx="3.65" transform="translate(627.25 -159.8) rotate(90)"/><line class="cls-24" x1="386.31" y1="186.23" x2="329.41" y2="237.44"/><circle class="cls-21" cx="328.98" cy="237.84" r="13.75"/><path class="cls-25" d="M667.49,350.39v8.16a5.63,5.63,0,0,1-5.64,5.64H642.18" transform="translate(-46.02 -28.16)"/><path class="cls-25" d="M614.81,298.05H623a5.63,5.63,0,0,1,5.64,5.64v19.67" transform="translate(-46.02 -28.16)"/><rect class="cls-5" x="560.11" y="323.54" width="82.84" height="54.46" rx="1.71" transform="translate(1157.04 673.38) rotate(180)"/><rect class="cls-26" x="560.11" y="323.54" width="82.84" height="54.46" rx="1.71" transform="translate(1157.04 673.38) rotate(180)"/><rect class="cls-5" x="571.61" y="334.28" width="59.83" height="14.57" rx="1.23" transform="translate(1157.04 654.97) rotate(180)"/><path class="cls-5" d="M572.43,355.85h58.2a.81.81,0,0,0,.81-.81h0a.82.82,0,0,0-.81-.82h-58.2a.82.82,0,0,0-.82.82h0A.82.82,0,0,0,572.43,355.85Z" transform="translate(-46.02 -28.16)"/><path class="cls-5" d="M572.43,360.51h58.2a.81.81,0,0,0,.81-.81h0a.82.82,0,0,0-.81-.82h-58.2a.82.82,0,0,0-.82.82h0A.82.82,0,0,0,572.43,360.51Z" transform="translate(-46.02 -28.16)"/><path class="cls-5" d="M572.43,365.57h58.2a.82.82,0,0,0,.81-.82h0a.81.81,0,0,0-.81-.81h-58.2a.82.82,0,0,0-.82.81h0A.82.82,0,0,0,572.43,365.57Z" transform="translate(-46.02 -28.16)"/><path class="cls-5" d="M572.43,370.23h58.2a.82.82,0,0,0,.81-.82h0a.81.81,0,0,0-.81-.81h-58.2a.82.82,0,0,0-.82.81h0A.82.82,0,0,0,572.43,370.23Z" transform="translate(-46.02 -28.16)"/><rect class="cls-5" x="656.76" y="335.81" width="22.24" height="15.34" rx="1.71" transform="translate(1289.74 658.81) rotate(180)"/><rect class="cls-27" x="656.76" y="335.81" width="22.24" height="15.34" rx="1.71" transform="translate(1289.74 658.81) rotate(180)"/><g class="cls-28"><g class="cls-29"><rect class="cls-21" x="461.98" y="211.72" width="106.2" height="68.25" rx="1.68"/></g><path class="cls-5" d="M597.42,257.05H522a.51.51,0,1,1,0-1h75.46a.51.51,0,0,1,0,1Z" transform="translate(-46.02 -28.16)"/><path class="cls-5" d="M552.83,277.31H522a.5.5,0,1,1,0-1h30.87a.5.5,0,0,1,0,1Z" transform="translate(-46.02 -28.16)"/><path class="cls-5" d="M552.83,289.4H522a.51.51,0,1,1,0-1h30.87a.51.51,0,0,1,0,1Z" transform="translate(-46.02 -28.16)"/><path class="cls-5" d="M561.4,265.1H522a.51.51,0,1,1,0-1H561.4a.51.51,0,1,1,0,1Z" transform="translate(-46.02 -28.16)"/><path class="cls-5" d="M596.61,265.3H569.14c-.45,0-.81-.27-.81-.61s.36-.6.81-.6h27.47c.45,0,.81.27.81.6S597.06,265.3,596.61,265.3Z" transform="translate(-46.02 -28.16)"/><rect class="cls-5" x="513.81" y="242.71" width="38.26" height="23.49" rx="2"/><path class="cls-30" d="M563.85,287.66l2.1-6.29a.7.7,0,0,1,1.18-.25l5.83,6.31a.7.7,0,0,0,1.17-.23l3.49-9.48a.7.7,0,0,1,1.21-.2l7.87,10a.7.7,0,0,0,1.14-.06l6.88-10.9" transform="translate(-46.02 -28.16)"/><polyline class="cls-30" points="546.54 248.69 549.01 248.08 549.01 250.55"/></g><g class="cls-31"><path class="cls-32" d="M603,208.67l-3.59-1.95a14.62,14.62,0,0,0,.38-4.36l3.86-1.06a1.31,1.31,0,0,0,.91-1.67L603,195.08a1.45,1.45,0,0,0-1.75-.94l-3.86,1.05a16.12,16.12,0,0,0-2.9-3.47l1.86-3.43a1.38,1.38,0,0,0-.59-1.86l-4.29-2.32a1.38,1.38,0,0,0-1.88.51l-1.86,3.44a16,16,0,0,0-4.49-.54l-1.23-3.81a1.44,1.44,0,0,0-1.75-.94L575.7,184a1.31,1.31,0,0,0-.91,1.68l1.23,3.81a14.7,14.7,0,0,0-3.45,2.7l-3.6-2a1.36,1.36,0,0,0-1.87.52l-2.23,4.1a1.38,1.38,0,0,0,.6,1.85l3.6,2a14.62,14.62,0,0,0-.38,4.36l-3.87,1.06a1.3,1.3,0,0,0-.9,1.67l1.46,4.54a1.45,1.45,0,0,0,1.75.95l3.86-1a16.41,16.41,0,0,0,2.9,3.46L572,217.11a1.38,1.38,0,0,0,.6,1.86l4.29,2.32a1.38,1.38,0,0,0,1.88-.51l1.86-3.44a16,16,0,0,0,4.49.53l1.22,3.81a1.45,1.45,0,0,0,1.75.95l4.61-1.25a1.31,1.31,0,0,0,.9-1.68l-1.22-3.81a14.45,14.45,0,0,0,3.44-2.7l3.6,1.94a1.36,1.36,0,0,0,1.88-.51l2.22-4.1A1.37,1.37,0,0,0,603,208.67ZM579.15,212A10.63,10.63,0,1,1,594,208,10.88,10.88,0,0,1,579.15,212Z" transform="translate(-46.02 -28.16)"/></g><g class="cls-33"><path class="cls-5" d="M635.76,155.89l-5.85-3.17a25.52,25.52,0,0,0,.77-7.35l6.37-1.89a2.3,2.3,0,0,0,1.54-2.85l-2.26-7.6a2.28,2.28,0,0,0-2.84-1.54l-6.38,1.9a25,25,0,0,0-4.65-5.74l3.16-5.85a2.29,2.29,0,0,0-.92-3.1l-7-3.77a2.28,2.28,0,0,0-3.1.92l-3.17,5.84a25.47,25.47,0,0,0-7.35-.76l-1.89-6.37a2.29,2.29,0,0,0-2.85-1.54l-7.59,2.25a2.29,2.29,0,0,0-1.55,2.85l1.9,6.37a25.51,25.51,0,0,0-5.74,4.66L580.54,126a2.28,2.28,0,0,0-3.1.93l-3.77,7a2.3,2.3,0,0,0,.92,3.11l5.84,3.16a25.51,25.51,0,0,0-.76,7.35l-6.37,1.9a2.28,2.28,0,0,0-1.54,2.84l2.26,7.6a2.28,2.28,0,0,0,2.84,1.54l6.38-1.89a25.2,25.2,0,0,0,4.65,5.74l-3.16,5.84a2.28,2.28,0,0,0,.92,3.1l7,3.78a2.29,2.29,0,0,0,3.1-.92l3.16-5.85a25.23,25.23,0,0,0,7.36.76l1.89,6.38a2.29,2.29,0,0,0,2.85,1.54l7.59-2.26a2.29,2.29,0,0,0,1.54-2.85l-1.89-6.37a25.74,25.74,0,0,0,5.74-4.65l5.84,3.16a2.3,2.3,0,0,0,3.11-.92l3.77-7A2.29,2.29,0,0,0,635.76,155.89Zm-39.19,6.42A18.06,18.06,0,1,1,621.05,155,18.06,18.06,0,0,1,596.57,162.31Z" transform="translate(-46.02 -28.16)"/></g><rect class="cls-19" x="475.95" y="55.54" width="26.28" height="15.2"/><rect class="cls-21" x="471.73" y="49.84" width="34.73" height="10.45" rx="1.98"/><ellipse class="cls-10" cx="489.09" cy="131.21" rx="62.89" ry="63.63"/><ellipse class="cls-5" cx="489.09" cy="131.21" rx="48.34" ry="48.91"/><path class="cls-2" d="M578.29,180.77A48.11,48.11,0,0,1,492,182c-1.75-3.38,19.55-22.41,41.91-22.7S579.85,177.53,578.29,180.77Z" transform="translate(-46.02 -28.16)"/><path class="cls-22" d="M562.07,191.1a30,30,0,0,1-53.9.8c-1.09-2.11,12.21-14,26.16-14.17S563,189.08,562.07,191.1Z" transform="translate(-46.02 -28.16)"/><rect class="cls-10" x="486.75" y="94.48" width="4.69" height="33.21" rx="0.9"/><ellipse class="cls-19" cx="489.09" cy="131.21" rx="7.03" ry="7.12"/><path class="cls-5" d="M637.92,199H612.08a1.08,1.08,0,0,0-1.08,1.08v18.84a1.08,1.08,0,0,0,1.08,1.08h25.84a1.08,1.08,0,0,0,1.08-1.08V200.08A1.08,1.08,0,0,0,637.92,199Z" transform="translate(-46.02 -28.16)"/><path class="cls-20" d="M621.89,208.39l2.83,1.49a.55.55,0,0,0,.54,0l12.58-7.4.94-.56a1,1,0,0,1,.22-.08v-1.75a1.08,1.08,0,0,0-1.08-1.08H612.08a1.08,1.08,0,0,0-1.08,1.08v2.78l.68.34Z" transform="translate(-46.02 -28.16)"/><polygon class="cls-20" points="564.98 176.06 564.98 189.42 575 181.15 564.98 176.06"/><polygon class="cls-20" points="592.98 189.5 592.98 175.03 582.86 180.99 592.98 189.5"/><path class="cls-20" d="M638.3,218.65l-10.53-8.85-1.91,1.12a1.77,1.77,0,0,1-.88.24,1.7,1.7,0,0,1-.82-.21l-2-1-.09.1-10.46,8.64a.62.62,0,0,1-.39.14.59.59,0,0,1-.22,0v.18a1.08,1.08,0,0,0,1.08,1.08h25.84a1.08,1.08,0,0,0,1.08-1.08v-.22a.59.59,0,0,1-.31.09A.62.62,0,0,1,638.3,218.65Z" transform="translate(-46.02 -28.16)"/><path class="cls-21" d="M639,201.83a1,1,0,0,0-.22.08l-.94.56-12.58,7.4a.55.55,0,0,1-.54,0l-2.83-1.49-10.21-5.19-.68-.34v1.36l10,5.09-10,8.27v1.16a.59.59,0,0,0,.22,0,.62.62,0,0,0,.39-.14L622.07,210l.09-.1,2,1a1.7,1.7,0,0,0,.82.21,1.77,1.77,0,0,0,.88-.24l1.91-1.12,10.53,8.85a.62.62,0,0,0,.39.14.59.59,0,0,0,.31-.09v-1l-10.13-8.51,10.13-6Z" transform="translate(-46.02 -28.16)"/><path class="cls-23" d="M507.84,412.13H508l0,1.61L490.4,414l0-1.19a.43.43,0,0,1,.27-.4l.13,0Z" transform="translate(-46.02 -28.16)"/><path class="cls-23" d="M501.68,406.23l5.32-.07a.55.55,0,0,1,.35.12.43.43,0,0,1,.1.09.6.6,0,0,1,.16.41l0,.62.09,2,.11,2.73-17,.24-.13,0a3.59,3.59,0,0,1,2.57-2.49l3.89-.3,2.64-1.36,1.58-1.95.09,0,.08,0Z" transform="translate(-46.02 -28.16)"/><path class="cls-23" d="M534.28,412.18h.16l0,1.62-17.58.14,0-1.19a.43.43,0,0,1,.27-.4.35.35,0,0,1,.14,0Z" transform="translate(-46.02 -28.16)"/><path class="cls-23" d="M528.16,406.24l5.31,0a.51.51,0,0,1,.35.12.48.48,0,0,1,.11.09.66.66,0,0,1,.15.41l0,.62.07,2,.1,2.73-17,.14a.35.35,0,0,0-.14,0,3.61,3.61,0,0,1,2.59-2.47l3.9-.28,2.64-1.34,1.59-1.94a.38.38,0,0,1,.1,0s0,0,.08,0Z" transform="translate(-46.02 -28.16)"/><path class="cls-34" d="M441,207.05a1.08,1.08,0,0,1,1.34-.75l.95.27s0-.08,0-.12l-1.52-.38a1.19,1.19,0,0,1-.91-1.5c.51-1.28,1.56-.8,2.22-.64l.8.28s-1.37-.55-1.39-.57a1.13,1.13,0,0,1-.23-.84,1.08,1.08,0,0,1,1.24-.9l3.8.58a48,48,0,0,1,6.61,1l-1.4-3.1a1.36,1.36,0,0,1,2.47-1.12l2.5,5.55a7.35,7.35,0,0,1,.75,1.32c.22.76,2.26,5,2.26,5l-5.12,1.7s-7.73-2.36-10.92-3.62l-2.72-.77A1.09,1.09,0,0,1,441,207.05Z" transform="translate(-46.02 -28.16)"/><path class="cls-35" d="M453.9,203.57l0,0a.19.19,0,0,0-.27,0,2.66,2.66,0,0,0-1.07,2,3.22,3.22,0,0,0,1,2.16.2.2,0,0,0,.28,0,.19.19,0,0,0,0-.27,2.87,2.87,0,0,1-.89-1.87,2.34,2.34,0,0,1,.93-1.72A.2.2,0,0,0,453.9,203.57Z" transform="translate(-46.02 -28.16)"/><path class="cls-10" d="M518.27,233.16H508.8c-3.65,0-7.63,1.71-11,4.12-5.64-.38-12.69-1-14-2-2.07-1.65-19.2-22-23-26.51a1.2,1.2,0,0,0-1.64-.18l-4.73,3.57a1.19,1.19,0,0,0-.29,1.6c3.36,5.25,19.93,31,22.51,32.57,1.13.68,7,2.84,13.67,5.22l1.44,8.42a144.19,144.19,0,0,1,1.4,38.31l-.69,7.06c0,.52-.55.95,0,.95h41.18c.55,0-2.63-14.73-2.63-15.26l5.9-40.78C538.28,239.72,527.86,233.16,518.27,233.16Z" transform="translate(-46.02 -28.16)"/><path class="cls-34" d="M457.76,262.78a.6.6,0,0,1,.57-.79l4.75,0-5.51-.7a.66.66,0,0,1-.58-.64v-.07a.61.61,0,0,1,.64-.61l5.43.22-4.47-.82a.66.66,0,0,1-.54-.74l0-.15a.62.62,0,0,1,.68-.49l4.27.48h.1l3.32-.13a.6.6,0,0,0,.45-1l-1.66-2.12a.61.61,0,0,1,0-.83l.08-.07a.65.65,0,0,1,.81,0l3.45,2.42a8.9,8.9,0,0,1,3.2,3l-.49,6.39s-.05,0-.08,0a82.73,82.73,0,0,1-8.57-.5s0,0-.06,0H460a.66.66,0,0,1-.67-.72.6.6,0,0,1,.51-.52l3.25-.51-4.7-.39a.68.68,0,0,1-.58-.45Z" transform="translate(-46.02 -28.16)"/><path class="cls-10" d="M532.1,240.55a7.27,7.27,0,0,0-9.59.84h0c-2.31,2.4-12.07,14.27-14.62,14.91s-29.17,1.82-35,2.08a1.17,1.17,0,0,0-1.14,1.18l-.06,5.93a1.2,1.2,0,0,0,1.09,1.2c6.21.53,36.74,3.08,39.55,2,1.5-.58,11.34-6.93,19.42-12.21a9.66,9.66,0,0,0,.51-15.82Z" transform="translate(-46.02 -28.16)"/><path class="cls-36" d="M472.76,266.7c6.21.53,36.74,3.08,39.55,2a71.72,71.72,0,0,0,6.34-3.77" transform="translate(-46.02 -28.16)"/><path class="cls-36" d="M532.1,240.55a7.27,7.27,0,0,0-9.59.84h0c-2.31,2.4-12.07,14.27-14.62,14.91s-29.17,1.82-35,2.08" transform="translate(-46.02 -28.16)"/><path class="cls-23" d="M493,294.15c0-1.2,1-1.17,2.18-1.21l34.88-.89a2.42,2.42,0,0,1,2.45,2s1.85,15.19,2,22.05l.56,89.2a2.36,2.36,0,0,1-2.37,2.38h-7.43a2.72,2.72,0,0,1-2.7-2.46l-7.25-78.39a2.23,2.23,0,0,0-2.23-2.08h0a2.24,2.24,0,0,0-2.24,2.22l-2.32,78.74a2,2,0,0,1-2,2H499a2,2,0,0,1-2-1.9l-4.74-95.87C492.2,307.21,493,294.15,493,294.15Z" transform="translate(-46.02 -28.16)"/><path class="cls-23" d="M528.67,213.19a2.39,2.39,0,0,1,.18-.44c.7-1.49,1.64-3,1.36-4.73a5.18,5.18,0,0,0-1.85-3,4.68,4.68,0,0,1-1.86-3.18,10.28,10.28,0,0,0-.81-3.75,6.08,6.08,0,0,0-1.93-1.88,12.52,12.52,0,0,0-6.83-2.28,18.6,18.6,0,0,0-3.5.73c-.72.14-1.13-.18-1.85-.34a10.73,10.73,0,0,0-2-.25A11,11,0,0,0,505,195c-3,1.27-7,4.25-7.84,7.6a29.08,29.08,0,0,1-.6,3.64c-.89,2.27-3.58,2.66-5.17,4.29a4.41,4.41,0,0,0-1.33,3.94,21.67,21.67,0,0,1,.77,2.27,4,4,0,0,1-.53,2.24c-.87,1.74-2.31,3.37-2.21,5.32a5.82,5.82,0,0,0,.75,2.31c4.66,8.89,16.87,9.92,25.69,8.74,5.34-.72,11-2.3,15.24-5.73a9,9,0,0,0,3.57-5.35c.59-3.81-2.42-6.95-4.37-9.87a1.64,1.64,0,0,1-.36-.86A.8.8,0,0,1,528.67,213.19Z" transform="translate(-46.02 -28.16)"/><path class="cls-34" d="M520.74,211.41l.63,0a2.62,2.62,0,0,1,2.46,2.78l-.16,2.62a2.62,2.62,0,0,1-2.78,2.46l-1.13-.07-.21,0-1.28,17.41c-.75,3.73-3.78,6.29-6.92,5.84-3.38-.49-5.61-4.22-4.93-8.26l.07-3.56c-4.69-.29-10-4.73-9.4-10.59l1.21-11.82a4.55,4.55,0,0,1,.56-1.76c4.57,4,7.71-2.18,10.48-2.45,6.35-.62,9.16,1.71,10.54,7.31C520,211.94,520.74,211.44,520.74,211.41Z" transform="translate(-46.02 -28.16)"/><polygon class="cls-37" points="468.91 202.62 460.47 202.76 460.41 205.78 468.91 202.62"/><path class="cls-23" d="M508.64,198.34a4.74,4.74,0,0,0-1,3.48c.44,3.34,4.24,3.7,6.38,5.48a4.19,4.19,0,0,1,1.65,3.22c-.07,2.25-2.47,3.82-2.79,6-.27,1.82,1.37,2.77,1.71,4.42.26,1.28-.53,2.51-1.21,3.62s-1.91,2-1.76,3.58a3.93,3.93,0,0,0,1.84,2.81,7.11,7.11,0,0,0,3.28,1,22.93,22.93,0,0,0,6.61-.44c3.85-.78,8.23-3.47,10-7.1,2.18-4.44-5.41-9.73-4.67-11.27s3.42-5.18-.37-8.16c-3.42-2.69.5-3.69-3.93-8.37C522.44,194.64,515.81,190.16,508.64,198.34Z" transform="translate(-46.02 -28.16)"/><path class="cls-23" d="M501.86,212.94a1.29,1.29,0,0,1-.68,0l-.7-.09-.7,0a1.22,1.22,0,0,1-.67-.11c-.18-.11-.23-.4,0-.73a1.69,1.69,0,0,1,1.48-.59,1.67,1.67,0,0,1,1.37.81C502.15,212.59,502.05,212.86,501.86,212.94Z" transform="translate(-46.02 -28.16)"/><path class="cls-23" d="M510.25,213.46a1.34,1.34,0,0,1-.69,0,6.1,6.1,0,0,0-.69-.08c-.22,0-.46,0-.7,0a1.27,1.27,0,0,1-.68-.11c-.17-.11-.23-.4,0-.73a1.82,1.82,0,0,1,2.86.22C510.53,213.1,510.44,213.37,510.25,213.46Z" transform="translate(-46.02 -28.16)"/><path class="cls-23" d="M500,216.38h0a.53.53,0,0,1-.49-.59l.11-1.08a.54.54,0,0,1,.59-.49h0a.54.54,0,0,1,.49.59l-.1,1.09A.55.55,0,0,1,500,216.38Z" transform="translate(-46.02 -28.16)"/><path class="cls-23" d="M508.09,217.17h0a.54.54,0,0,1-.49-.59l.11-1.08a.54.54,0,0,1,.59-.49h0a.54.54,0,0,1,.49.59l-.11,1.08A.54.54,0,0,1,508.09,217.17Z" transform="translate(-46.02 -28.16)"/><path class="cls-38" d="M504.19,214.56,502.57,217a1.29,1.29,0,0,0,1,1.93l.86.05" transform="translate(-46.02 -28.16)"/><path class="cls-23" d="M504.73,220.76h5a0,0,0,0,1,0,0v1a2,2,0,0,1-2,2h-2.11a.9.9,0,0,1-.9-.9v-2.1A0,0,0,0,1,504.73,220.76Z" transform="translate(-31.53 -58.66) rotate(3.49)"/><path class="cls-15" d="M507.64,223.79h-.11a1,1,0,0,1-.84-.95c.07-1.1,3.06-.91,3.06-.91h0A2,2,0,0,1,507.64,223.79Z" transform="translate(-46.02 -28.16)"/></g></svg>