<svg xmlns="http://www.w3.org/2000/svg" width="264" height="281" viewBox="0 0 264 281">
  <path id="HalfElipse" d="M-228.5,317a140.753,140.753,0,0,1-38.441-5.324,139.794,139.794,0,0,1-34.375-14.994A141.169,141.169,0,0,1-352,243.549v-134.1a141.169,141.169,0,0,1,50.684-53.133,139.794,139.794,0,0,1,34.375-14.994A140.752,140.752,0,0,1-228.5,36a141.538,141.538,0,0,1,28.316,2.854,139.79,139.79,0,0,1,26.373,8.187A140.515,140.515,0,0,1-149.945,60a141.51,141.51,0,0,1,20.794,17.156A141.511,141.511,0,0,1-112,97.945a140.515,140.515,0,0,1,12.954,23.866,139.79,139.79,0,0,1,8.187,26.373A141.538,141.538,0,0,1-88,176.5a141.539,141.539,0,0,1-2.854,28.316,139.79,139.79,0,0,1-8.187,26.373A140.514,140.514,0,0,1-112,255.055a141.512,141.512,0,0,1-17.156,20.794A141.51,141.51,0,0,1-149.945,293a140.515,140.515,0,0,1-23.866,12.954,139.791,139.791,0,0,1-26.373,8.187A141.538,141.538,0,0,1-228.5,317Z" transform="translate(352 -36)" fill="#fec949" opacity="0.32"/>
</svg>
