<svg xmlns="http://www.w3.org/2000/svg" width="299" height="391" viewBox="0 0 299 391">
  <path id="key-halfelipse" d="M-233.5,448a195.778,195.778,0,0,1-54.748-7.768A194.5,194.5,0,0,1-337,418.387V86.613a194.5,194.5,0,0,1,48.752-21.845A195.779,195.779,0,0,1-233.5,57a196.948,196.948,0,0,1,39.4,3.972,194.512,194.512,0,0,1,36.7,11.392,195.515,195.515,0,0,1,33.208,18.025A196.906,196.906,0,0,1-95.26,114.261a196.907,196.907,0,0,1,23.872,28.934A195.521,195.521,0,0,1-53.363,176.4a194.518,194.518,0,0,1,11.392,36.7A196.95,196.95,0,0,1-38,252.5a196.948,196.948,0,0,1-3.972,39.4,194.515,194.515,0,0,1-11.392,36.7,195.519,195.519,0,0,1-18.025,33.208A196.9,196.9,0,0,1-95.26,390.74a196.9,196.9,0,0,1-28.933,23.872A195.522,195.522,0,0,1-157.4,432.637a194.517,194.517,0,0,1-36.7,11.392A196.948,196.948,0,0,1-233.5,448Z" transform="translate(337 -57)" fill="#fec949" opacity="0.32"/>
</svg>
