<svg xmlns="http://www.w3.org/2000/svg" width="317.009" height="390.5" viewBox="0 0 317.009 390.5">
  <path id="Subtraction_2" data-name="Subtraction 2" d="M1938.227,96h-.015c-21.176,0-45.124-2.358-71.177-7-20.462-3.648-42.174-8.689-64.534-14.985V-294.5h230.54c7.329,8.667,14.581,17.732,21.555,26.941a672.118,672.118,0,0,1,40.965,60.777c11.084,18.553,18.132,35.855,21.547,52.894a123.932,123.932,0,0,1,.139,47.883c-2.674,14.367-7.7,29.538-15.822,47.744-7.332,16.438-16.562,33.944-26.336,52.478l-.01.018c-8.514,16.145-17.317,32.84-26.334,51.457a75.9,75.9,0,0,1-8.05,13.085A75.333,75.333,0,0,1,2030.522,69.6a83.354,83.354,0,0,1-12.053,8.726,99.969,99.969,0,0,1-13.7,6.784,141.736,141.736,0,0,1-31.4,8.375A229.958,229.958,0,0,1,1938.227,96Z" transform="translate(-1802.5 294.5)" fill="#fec949" opacity="0.32"/>
</svg>
