<svg xmlns="http://www.w3.org/2000/svg" xmlns:xlink="http://www.w3.org/1999/xlink" width="624.779" height="629.5" viewBox="0 0 624.779 629.5">
  <defs>
    <linearGradient id="linear-gradient" y1="0.5" x2="1" y2="0.5" gradientUnits="objectBoundingBox">
      <stop offset="0" stop-color="#dae3fe"/>
      <stop offset="1" stop-color="#e9effd"/>
    </linearGradient>
    <linearGradient id="linear-gradient-2" x1="0" y1="0.5" y2="0.5" xlink:href="#linear-gradient"/>
    <linearGradient id="linear-gradient-3" x1="0" y1="0.5" y2="0.5" xlink:href="#linear-gradient"/>
    <linearGradient id="linear-gradient-16" x1="-53.424" y1="-0.843" x2="-53.93" y2="2.39" gradientUnits="objectBoundingBox">
      <stop offset="0" stop-color="#febbba"/>
      <stop offset="1" stop-color="#ff928e"/>
    </linearGradient>
    <linearGradient id="linear-gradient-17" x1="-48.321" y1="-2.028" x2="-48.8" y2="0.687" xlink:href="#linear-gradient-16"/>
    <linearGradient id="linear-gradient-18" x1="2.252" y1="-0.791" x2="-2.568" y2="2.342" gradientUnits="objectBoundingBox">
      <stop offset="0" stop-color="#4042e2"/>
      <stop offset="1" stop-color="#4f52ff"/>
    </linearGradient>
    <linearGradient id="linear-gradient-19" x1="-17.788" y1="1.219" x2="-17.397" y2="0.33" xlink:href="#linear-gradient-16"/>
    <linearGradient id="linear-gradient-20" x1="-16.536" y1="0.277" x2="-18.796" y2="1.877" xlink:href="#linear-gradient-16"/>
    <linearGradient id="linear-gradient-21" x1="-68.806" y1="-0.686" x2="-73.367" y2="1.783" xlink:href="#linear-gradient-16"/>
    <linearGradient id="linear-gradient-22" x1="-114.508" y1="-0.443" x2="-102.515" y2="3.61" xlink:href="#linear-gradient-16"/>
    <linearGradient id="linear-gradient-23" x1="-8.415" y1="-0.123" x2="-7.482" y2="1.014" xlink:href="#linear-gradient-16"/>
    <linearGradient id="linear-gradient-24" x1="-70.04" y1="0.261" x2="-62.836" y2="2.696" xlink:href="#linear-gradient-16"/>
    <linearGradient id="linear-gradient-25" x1="-2.365" y1="1.376" x2="-1.337" y2="3.786" gradientUnits="objectBoundingBox">
      <stop offset="0" stop-color="#ff9085"/>
      <stop offset="1" stop-color="#fb6fbb"/>
    </linearGradient>
    <linearGradient id="linear-gradient-26" x1="-3.867" y1="15.588" x2="-4.672" y2="20.694" xlink:href="#linear-gradient-16"/>
  </defs>
  <g id="Group_6" data-name="Group 6" transform="translate(-1027.583 -182.574)">
    <g id="Group_5" data-name="Group 5" transform="translate(1163.547 378.259)" opacity="0.52">
      <path id="Path_6" data-name="Path 6" d="M1474.61,1327.113l61.763-.209-.023-7.5-61.695.191Z" transform="translate(-1386.738 -1319.4)" fill="#fff"/>
      <path id="Path_7" data-name="Path 7" d="M1473.86,1448.53l62.017-.274-.023-7.566-61.946.256Z" transform="translate(-1386.158 -1413.174)" fill="#fff"/>
      <path id="Path_8" data-name="Path 8" d="M1473.11,1570.942l62.273-.343-.023-7.629-62.2.324Z" transform="translate(-1385.578 -1507.714)" fill="#fff"/>
      <path id="Path_9" data-name="Path 9" d="M1472.35,1694.366l62.532-.413-.025-7.693-62.459.395Z" transform="translate(-1384.991 -1603.034)" fill="#fff"/>
      <path id="Path_10" data-name="Path 10" d="M1471.59,1818.82l62.79-.483-.023-7.756-62.72.465Z" transform="translate(-1384.403 -1699.151)" fill="#fff"/>
      <path id="Path_11" data-name="Path 11" d="M1470.04,2070.854l63.317-.629-.023-7.885-63.246.608Z" transform="translate(-1383.205 -1893.797)" fill="#fff"/>
      <path id="Path_12" data-name="Path 12" d="M1467.66,2456.923l64.126-.853-.025-8.09-64.052.833Z" transform="translate(-1381.365 -2191.95)" fill="#fff"/>
      <path id="Path_13" data-name="Path 13" d="M1470.81,1944.308l63.056-.556-.025-7.822-62.981.538Z" transform="translate(-1383.8 -1796.064)" fill="#fff"/>
      <path id="Path_14" data-name="Path 14" d="M1469.25,2198.465l63.587-.7-.025-7.951-63.512.68Z" transform="translate(-1382.594 -1992.349)" fill="#fff"/>
      <path id="Path_15" data-name="Path 15" d="M1468.46,2327.148l63.854-.778-.025-8.02-63.78.757Z" transform="translate(-1381.983 -2091.728)" fill="#fff"/>
      <path id="Path_16" data-name="Path 16" d="M1466.86,2587.81l64.4-.932-.025-8.158-64.324.91Z" transform="translate(-1380.746 -2293.031)" fill="#fff"/>
      <path id="Path_17" data-name="Path 17" d="M1466.05,2719.81l64.676-1.012-.025-8.228-64.6.989Z" transform="translate(-1380.12 -2394.969)" fill="#fff"/>
      <path id="Path_18" data-name="Path 18" d="M1465.23,2852.952l64.955-1.094-.025-8.3-64.88,1.071Z" transform="translate(-1379.486 -2497.789)" fill="#fff"/>
      <path id="Path_19" data-name="Path 19" d="M1464.4,2987.244l65.236-1.175-.025-8.369-65.159,1.15Z" transform="translate(-1378.844 -2601.497)" fill="#fff"/>
      <path id="Path_20" data-name="Path 20" d="M1117.67,1328.228l62.15-.209.066-7.529-62.08.19Z" transform="translate(-1110.774 -1320.243)" fill="#fff"/>
      <path id="Path_21" data-name="Path 21" d="M1115.44,1450.028l62.409-.277.068-7.591-62.336.259Z" transform="translate(-1109.049 -1414.311)" fill="#fff"/>
      <path id="Path_22" data-name="Path 22" d="M1113.2,1572.829l62.668-.345.068-7.654-62.6.327Z" transform="translate(-1107.318 -1509.152)" fill="#fff"/>
      <path id="Path_23" data-name="Path 23" d="M1110.94,1696.663l62.929-.415.07-7.718-62.856.395Z" transform="translate(-1105.57 -1604.789)" fill="#fff"/>
      <path id="Path_24" data-name="Path 24" d="M1108.67,1821.517l63.192-.486.068-7.781-63.119.467Z" transform="translate(-1103.815 -1701.215)" fill="#fff"/>
      <path id="Path_25" data-name="Path 25" d="M1104.05,2074.384l63.727-.631.07-7.913-63.652.61Z" transform="translate(-1100.243 -1896.503)" fill="#fff"/>
      <path id="Path_26" data-name="Path 26" d="M1096.98,2461.747l64.544-.86.072-8.117-64.467.839Z" transform="translate(-1094.777 -2195.654)" fill="#fff"/>
      <path id="Path_27" data-name="Path 27" d="M1106.37,1947.417l63.457-.56.07-7.847-63.385.54Z" transform="translate(-1102.037 -1798.445)" fill="#fff"/>
      <path id="Path_28" data-name="Path 28" d="M1101.72,2202.417l63.995-.708.073-7.979-63.922.685Z" transform="translate(-1098.442 -1995.38)" fill="#fff"/>
      <path id="Path_29" data-name="Path 29" d="M1099.36,2331.531l64.269-.783.07-8.049-64.192.762Z" transform="translate(-1096.617 -2095.091)" fill="#fff"/>
      <path id="Path_30" data-name="Path 30" d="M1094.59,2593.084l64.821-.939.073-8.185-64.746.917Z" transform="translate(-1092.929 -2297.082)" fill="#fff"/>
      <path id="Path_31" data-name="Path 31" d="M1092.17,2725.536l65.1-1.018.075-8.258-65.025,1Z" transform="translate(-1091.058 -2399.368)" fill="#fff"/>
      <path id="Path_32" data-name="Path 32" d="M1089.73,2859.146l65.383-1.1.075-8.326-65.306,1.075Z" transform="translate(-1089.172 -2502.552)" fill="#fff"/>
      <path id="Path_33" data-name="Path 33" d="M1087.27,2993.9l65.669-1.179.075-8.4-65.59,1.159Z" transform="translate(-1087.27 -2606.616)" fill="#fff"/>
    </g>
    <path id="Path_35" data-name="Path 35" d="M1058.89,1834.547l47.373-.052.377-19.295h-47.418Z" transform="translate(98.219 -1324.464)" fill="url(#linear-gradient)"/>
    <path id="Path_36" data-name="Path 36" d="M824.83,1834.535l47.325-.05.324-19.285H825.107Z" transform="translate(279.18 -1324.464)" fill="url(#linear-gradient-2)"/>
    <path id="Path_38" data-name="Path 38" d="M1056.28,1987.85l47.291.025.374-19.172-47.337-.014Z" transform="translate(100.237 -1443.133)" fill="url(#linear-gradient-3)"/>
    <path id="Path_39" data-name="Path 39" d="M822.63,1987.762l47.241.025.324-19.161-47.289-.016Z" transform="translate(280.881 -1443.071)" fill="url(#linear-gradient-3)"/>
    <path id="Path_41" data-name="Path 41" d="M1053.68,2139.7l47.207.039.374-19.1-47.253-.032Z" transform="translate(102.247 -1560.581)" fill="url(#linear-gradient-2)"/>
    <path id="Path_42" data-name="Path 42" d="M820.43,2139.536l47.162.039.322-19.093-47.207-.032Z" transform="translate(282.582 -1560.465)" fill="url(#linear-gradient)"/>
    <path id="Path_44" data-name="Path 44" d="M1051.09,2291.019l47.126.057.372-19.038-47.171-.048Z" transform="translate(104.25 -1677.627)" fill="url(#linear-gradient-2)"/>
    <path id="Path_45" data-name="Path 45" d="M818.25,2290.79l47.078.052.32-19.027-47.123-.045Z" transform="translate(284.267 -1677.457)" fill="url(#linear-gradient-2)"/>
    <path id="Path_47" data-name="Path 47" d="M1048.51,2441.823l47.044.07.37-18.972-47.089-.061Z" transform="translate(106.244 -1794.27)" fill="url(#linear-gradient)"/>
    <path id="Path_48" data-name="Path 48" d="M816.07,2441.515l47,.068.32-18.961-47.042-.061Z" transform="translate(285.953 -1794.038)" fill="url(#linear-gradient-2)"/>
    <path id="Path_50" data-name="Path 50" d="M1045.93,2592.108l46.965.086.367-18.907-47.008-.077Z" transform="translate(108.239 -1910.512)" fill="url(#linear-gradient)"/>
    <path id="Path_51" data-name="Path 51" d="M813.89,2591.718l46.917.086.32-18.9-46.962-.077Z" transform="translate(287.638 -1910.218)" fill="url(#linear-gradient)"/>
    <path id="Path_53" data-name="Path 53" d="M1043.37,2741.872l46.881.1.37-18.841-46.928-.091Z" transform="translate(110.218 -2026.351)" fill="url(#linear-gradient-3)"/>
    <path id="Path_54" data-name="Path 54" d="M811.73,2741.413l46.835.1.318-18.832L812,2722.59Z" transform="translate(289.309 -2026.004)" fill="url(#linear-gradient-3)"/>
    <path id="Path_56" data-name="Path 56" d="M1040.81,2891.119l46.8.113.368-18.775-46.847-.107Z" transform="translate(112.197 -2141.789)" fill="url(#linear-gradient-2)"/>
    <path id="Path_90" data-name="Path 90" d="M763.756,1299.688c-13.571-42.611-39.827-76.57-70.932-96.531a126.555,126.555,0,0,1-55.254-77.745q-1.17-5.061-2.784-10.141c-16.334-51.248-61.091-82.745-99.993-70.356s-57.207,63.979-40.885,115.222a125.451,125.451,0,0,0,13.289,28.748c17.309,27.514,24.086,60.49,17.713,92.4-5.692,28.512-4.147,60.615,6.028,92.559,15.175,47.641,46.214,84.476,82.151,103.017a124.865,124.865,0,0,1,36,27.84c16.867,18.936,40.64,27.838,62.479,20.882,23.562-7.5,38.28-31.363,39.34-59.21a133.385,133.385,0,0,1,10.34-45.787C775.5,1386.133,777.479,1342.759,763.756,1299.688Z" transform="translate(539.644 -726.842)" fill="#918cd3"/>
    <path id="Path_91" data-name="Path 91" d="M826.321,1275.29c15.88,32.248,30.685,64.984,45.145,97.874,3.63,8.219,7.11,16.5,10.624,24.764l5.27,12.4,5.191,12.443c3.4,8.312,6.94,16.574,10.256,24.923l9.955,25.045c6.422,16.788,12.986,33.509,19.095,50.411,3.065,8.446,6.3,16.831,9.19,25.34l8.8,25.481c11.384,34.09,21.915,68.485,30.674,103.346l-1.5.395-7.552-25.832-1.874-6.459-2.042-6.413-4.083-12.818-4.07-12.822c-1.348-4.276-2.856-8.5-4.276-12.756-2.9-8.489-5.73-17-8.684-25.467q-18.035-50.7-37.7-100.819c-6.72-16.64-13.294-33.335-20.129-49.927l-5.093-12.457-5.2-12.416c-3.46-8.281-6.919-16.561-10.463-24.8q-10.42-24.823-21.211-49.49-10.662-24.727-21.706-49.281Z" transform="translate(279.103 -907.038)" fill="#fff" opacity="0.57"/>
    <path id="Path_92" data-name="Path 92" d="M1334.815,762.394c-6.341-46.534-27.307-86.42-55.771-112.706a133.291,133.291,0,0,1-42.988-90.431q-.3-5.445-1.05-11c-7.627-55.966-48.094-96.663-90.4-90.9s-70.408,55.808-62.781,111.774a132.223,132.223,0,0,0,8.537,32.144c12.9,31.586,13.968,66.935,1.686,98.782-10.978,28.46-15.141,61.946-10.386,96.835,7.092,52.033,32.464,95.755,66.166,121.45a131.183,131.183,0,0,1,32.1,35.322c13.984,22.645,36.878,36.162,60.626,32.924,25.619-3.491,45.064-25.5,51.146-54.1A139.952,139.952,0,0,1,1310.557,887C1331.416,853.941,1341.228,809.444,1334.815,762.394Z" transform="translate(82.12 -274.246)" fill="#7777af"/>
    <path id="Path_93" data-name="Path 93" d="M1461.427,712.76c10.567,36.234,19.963,72.781,28.974,109.424,2.269,9.158,4.367,18.355,6.506,27.543l3.208,13.782,3.09,13.809c2.026,9.215,4.179,18.4,6.1,27.638l5.764,27.713c3.607,18.521,7.373,37.014,10.635,55.6,1.643,9.3,3.469,18.55,4.925,27.876l4.494,27.951c5.617,37.325,10.3,74.809,13.074,112.459l-1.62.136-3.151-28.09-.771-7.021-.946-7-1.922-14-1.894-14c-.621-4.669-1.418-9.312-2.119-13.97-1.465-9.3-2.856-18.623-4.381-27.917-6.338-37.146-13.171-74.206-20.767-111.121-3.938-18.428-7.713-36.888-11.8-55.29l-3.013-13.809-3.128-13.784c-2.08-9.192-4.161-18.376-6.334-27.552q-6.282-27.563-12.981-55.036c-4.374-18.335-8.922-36.633-13.525-54.9Z" transform="translate(-211.779 -472.124)" fill="#fff" opacity="0.57"/>
    <rect id="Rectangle_26" data-name="Rectangle 26" width="379.7" height="509.428" rx="23.03" transform="translate(1236.882 298.563)" fill="#5e4fa2"/>
    <rect id="Rectangle_27" data-name="Rectangle 27" width="285.719" height="365.789" rx="76.01" transform="translate(1283.47 375.096)" fill="#a29ad6"/>
    <rect id="Rectangle_28" data-name="Rectangle 28" width="242.339" height="310.252" rx="22.8" transform="translate(1305.274 405.187)" fill="#5e4fa2"/>
    <circle id="Ellipse_13" data-name="Ellipse 13" cx="11.359" cy="11.359" r="11.359" transform="translate(1409.98 337.625) rotate(-45)" fill="#373168"/>
    <path id="Path_94" data-name="Path 94" d="M2001.039,1948.591l-146.137,2.43c-11.116.184-20.172,8.834-20.172,19.317v92.032c0,10.483,9.05,18.619,20.172,18.172l146.137-5.869c10.5-.422,18.977-8.975,18.977-19.106v-88.947C2020.016,1956.488,2011.536,1948.416,2001.039,1948.591Z" transform="translate(-501.614 -1427.591)" fill="#fcdb92"/>
    <path id="Path_95" data-name="Path 95" d="M2088.4,1602.83a7.75,7.75,0,0,1-8.02-7.629v-20.143c0-20.207-17.094-36.6-38.253-36.525l-47.606.136c-21.7.063-39.49,16.937-39.49,37.618v20.592a8.337,8.337,0,0,1-8.423,8.056,8.076,8.076,0,0,1-8.451-7.829v-20.667c0-29.514,25.429-53.539,56.363-53.539h47.606c30.059,0,54.267,23.323,54.267,51.99v20.084A8.007,8.007,0,0,1,2088.4,1602.83Z" transform="translate(-581.579 -1098.475)" fill="#fcdb92"/>
    <path id="Path_96" data-name="Path 96" d="M2220.959,2113.56c0-10.227-8.927-18.258-19.782-17.521-9.6.653-17.534,8.34-18.053,17.516a17.317,17.317,0,0,0,9.462,16.393,6.417,6.417,0,0,1,3.283,6.881l-4.174,23.41a4.735,4.735,0,0,0,5.02,5.488l10.722-.383a5.113,5.113,0,0,0,4.991-5.826l-4.172-23.2a6.882,6.882,0,0,1,3.478-7.032A18.456,18.456,0,0,0,2220.959,2113.56Z" transform="translate(-770.949 -1541.556)" fill="#fec949"/>
    <path id="Path_97" data-name="Path 97" d="M964.5,3149.067a2.311,2.311,0,0,0-.061-.608c-3.031-12.024-18.072-19.5-18.072-19.5l-5.955.463c-3.428,10.59-2.985,17.085-2.436,19.978a2.28,2.28,0,0,0,.061.227A139.9,139.9,0,0,0,964.5,3149.067Z" transform="translate(191.991 -2340.185)" fill="#5e4fa2"/>
    <path id="Path_98" data-name="Path 98" d="M939.51,3218.164a2.586,2.586,0,0,0,1.892,1.91c6.994,1.47,18.11.288,22.777-.322a2.169,2.169,0,0,0,1.8-2.162A141.459,141.459,0,0,1,939.51,3218.164Z" transform="translate(190.517 -2408.708)" fill="#91b3fa"/>
    <path id="Path_99" data-name="Path 99" d="M939.42,3091.89l2.523,12.153a1.986,1.986,0,0,0,1.7,1.633,16.834,16.834,0,0,0,3.911-.061,2.5,2.5,0,0,0,1.978-2.936l-1.756-10.79Z" transform="translate(190.586 -2311.524)" fill="url(#linear-gradient-16)"/>
    <path id="Path_100" data-name="Path 100" d="M1129.967,3213.719c-6.579-.184-9.982-.959-11.747-1.679,0,.656,0,1.32.02,2.012a1.3,1.3,0,0,0,1.241,1.32l36.141-.227a1.647,1.647,0,0,0,1.327-2.4C1152.2,3213.129,1140.132,3214,1129.967,3213.719Z" transform="translate(52.349 -2404.417)" fill="#91b3fa"/>
    <path id="Path_101" data-name="Path 101" d="M1156.886,3154.759a1.563,1.563,0,0,0-.143-.272c-3.192-4.46-11.32-13.342-27.384-17.191l-7.713-.245s-3.43,5.964-3.5,17.014c1.76.719,5.166,1.495,11.747,1.679C1140.078,3156.027,1152.145,3155.151,1156.886,3154.759Z" transform="translate(52.403 -2346.439)" fill="#5e4fa2"/>
    <path id="Path_102" data-name="Path 102" d="M1125.78,3078.653c.122.569,1.724,9.215,2.346,12.568a1.676,1.676,0,0,0,1.506,1.423,17.718,17.718,0,0,0,5.279-.415,2.3,2.3,0,0,0,1.588-2.391l-.862-13.677Z" transform="translate(46.504 -2299.362)" fill="url(#linear-gradient-17)"/>
    <path id="Path_103" data-name="Path 103" d="M933.109,2342.178s10.6,72.843,18.251,159.526a3.293,3.293,0,0,1-2.722,3.353,40.151,40.151,0,0,1-8.621,1,3.194,3.194,0,0,1-3.044-2.666c-2.6-15.284-21.2-97.31-26.089-115.363,0,0-5.608,76.679-3.816,116.47a1.883,1.883,0,0,1-1.663,1.96,31.7,31.7,0,0,1-6.917-.018,2.521,2.521,0,0,1-2.248-2.141c-1.858-12.931-12.541-89.93-12.087-145.393.025-3.129,3.668-28.825,3.668-28.825Z" transform="translate(233.327 -1722.538)" fill="#5e4fa2"/>
    <path id="Path_104" data-name="Path 104" d="M1118.15,1843.43l1.418,38.113a104.906,104.906,0,0,0,11.525,3.273c2.287-7.362,7.321-16.393,11.441-23.11C1127.39,1856.357,1118.15,1843.43,1118.15,1843.43Z" transform="translate(52.403 -1346.29)" fill="url(#linear-gradient-18)"/>
    <path id="Path_105" data-name="Path 105" d="M882.461,1934.373a3,3,0,0,1-1.969-2.525c-1.409-13.677-8.235-98.478,34.857-133.362,0,0,2.471-6.466,22.784,9.428s9.437,32.552,4.573,55.529c-5.885,27.806-16.209,50.533-11.64,67.643a2.371,2.371,0,0,1-1.452,2.843A67.267,67.267,0,0,1,882.461,1934.373Z" transform="translate(237.107 -1310.535)" fill="#fec949"/>
    <path id="Path_106" data-name="Path 106" d="M1053.789,1690.92c-.014,1.207-17.219,25.635-17.219,25.635s3.088,6.084,17.833,11.023l12.727-26.168Z" transform="translate(115.476 -1228.378)" fill="url(#linear-gradient-19)"/>
    <path id="Path_107" data-name="Path 107" d="M1004.585,1973.334a.557.557,0,0,1-.313-.1c-13.745-9.288-20.211-24.274-20.274-24.428a.559.559,0,0,1,1.028-.438c.063.148,6.409,14.844,19.873,23.941a.558.558,0,0,1-.313,1.021Z" transform="translate(156.156 -1427.162)" fill="#5e4fa2"/>
    <path id="Path_108" data-name="Path 108" d="M1042.643,1861.929a.555.555,0,0,1-.469-.256c-.041-.064-4.24-6.6-12.239-20.923-2.459-4.4-5.692-7.192-9.607-8.287-6.484-1.815-12.734,1.663-12.795,1.7a.559.559,0,1,1-.554-.971c.27-.154,6.7-3.75,13.639-1.815,4.217,1.177,7.682,4.145,10.293,8.823,7.979,14.292,12.162,20.8,12.2,20.871a.556.556,0,0,1-.469.86Z" transform="translate(138.572 -1336.529)" fill="#5e4fa2"/>
    <path id="Path_109" data-name="Path 109" d="M1088.5,1629.19s6.125,14.065,6.533,21.447,2,12.171-6.533,13.657-15.726-2.765-19.621-10.118c0,0-6.1-11.332-4.734-15.971S1088.5,1629.19,1088.5,1629.19Z" transform="translate(94.308 -1180.652)" fill="url(#linear-gradient-20)"/>
    <path id="Path_110" data-name="Path 110" d="M1034.327,1596.54l.485-.213a1.171,1.171,0,0,0,.572-1.608c-1.2-2.328-3.55-7.657-.517-8.9,3.906-1.6,19.38-4.764,22.718-10.247,3.21-5.277.368-12.089-3.906-14.027a.587.587,0,0,0-.769.25l-.356.681a.581.581,0,0,1-1.071-.109h0a.576.576,0,0,0-1.044-.15c-1.028,1.642-3.8,4.31-11.207,5.671-10.531,1.944-17.491,6.2-17.666,13.48a.581.581,0,0,1-.908.479c-.778-.474-2.024-.7-3.686.7-2.89,2.432-1.708,8.739,4.633,13.927a.579.579,0,0,1-.027.93c-1.15.749-2.863,2.527,1.577,4.9,4.592,2.455,8.019,2.255,9.34,2.042a.576.576,0,0,0,.469-.7l-1.409-6.4a.579.579,0,0,1,.565-.706Z" transform="translate(131.782 -1128.309)" fill="#373168"/>
    <path id="Path_111" data-name="Path 111" d="M1073.574,1698.448s-2.336-8.984-6.352-6.466,2.089,10.068,5.327,10.4Z" transform="translate(92.8 -1228.855)" fill="url(#linear-gradient-21)"/>
    <path id="Path_112" data-name="Path 112" d="M1437.646,1781.93s-3.067-5.445-2.872-8.083-1.452-6.527.3-6.239,2.114.052,2.591,3.224S1443.671,1787.86,1437.646,1781.93Z" transform="translate(-191.993 -1287.657)" fill="url(#linear-gradient-22)"/>
    <path id="Path_113" data-name="Path 113" d="M1237.936,1792.66l-.07,10.869c-20.774,22.43-37.589,23.75-51.225,18.929-4.122,6.717-9.154,15.749-11.44,23.11,55.476,12.23,68.539-38.77,68.539-38.77,7.514-3.113,9.029-4.932,8.707-6.971Z" transform="translate(8.295 -1307.037)" fill="url(#linear-gradient-23)"/>
    <path id="Path_114" data-name="Path 114" d="M1488.921,1726.058c-1.774-.721-5.243-7.334-5.9-5.159s.281,5.159,0,6.085-4.605,11.57-3.741,13.936c.622,1.706,4.056,1.454,4.58,4.247a1.785,1.785,0,0,0,3.548,0C1487.471,1744.8,1490.7,1726.778,1488.921,1726.058Z" transform="translate(-226.714 -1251.219)" fill="url(#linear-gradient-24)"/>
    <path id="Path_115" data-name="Path 115" d="M1251.908,1540.163a56.223,56.223,0,0,0,90.553,64.487l96.263,48.67a5.234,5.234,0,0,0,5.039-.175l9.415-5.608a5.228,5.228,0,0,0,.454-.315c.043-.032.082-.064.123-.1.109-.086.216-.177.315-.272.034-.032.07-.064.1-.1a5.116,5.116,0,0,0,.356-.386h0a5.231,5.231,0,0,0,.819-5.261l-7.65-19.179a5.234,5.234,0,0,0-2.5-2.722l-9.642-4.873-2.552,5.045-8.274-4.2,2.552-5.048-7.75-3.918-2.348,4.655-10.066-5.091,2.346-4.641-3.75-1.9-1.209,2.389-8.439-4.265,1.209-2.391-6.563-3.319-2.552,5.048-4.689-2.371,2.552-5.048-4.063-2.042-2.552,5.025-8.126-4.109,2.552-5.045-11.422-5.776h0l-4.893-2.473a56.223,56.223,0,0,0-105.615-34.7Zm32.8,3.827a11.382,11.382,0,1,1-15.295,5.023,11.382,11.382,0,0,1,15.295-5.023Z" transform="translate(-46.326 -1087.962)" fill="#fec949"/>
    <path id="Path_116" data-name="Path 116" d="M1597.1,1720.18l45.635,23.072-2.552,5.048,8.126,4.109,2.552-5.048,4.063,2.056-2.552,5.045,4.689,2.37,2.552-5.045,6.563,3.319-1.209,2.389,8.439,4.267,1.209-2.389,3.75,1.894-2.346,4.644L1686.09,1771l2.348-4.641,7.75,3.918-2.557,5.048,8.283,4.188,2.552-5.047,9.642,4.875a5.244,5.244,0,0,1,2.5,2.722l7.65,19.177a5.236,5.236,0,0,1-2.183,6.436l-9.415,5.608a5.218,5.218,0,0,1-5.039.175L1591.41,1754.7Z" transform="translate(-313.493 -1251)" fill="#f7cc81"/>
    <path id="Path_117" data-name="Path 117" d="M1284.351,1602.943a56.213,56.213,0,1,0-24.8-75.531A56.214,56.214,0,0,0,1284.351,1602.943Zm-2.269-51.386a15.032,15.032,0,1,0-.009,0Z" transform="translate(-52.233 -1078.105)" fill="url(#linear-gradient-25)"/>
    <path id="Path_118" data-name="Path 118" d="M1350.109,1591.9l96.264,48.671a5.218,5.218,0,0,0,5.039-.175l9.415-5.608a5.218,5.218,0,0,0,2.5-3.82c-8.773-9.508-92.171-45.923-95.281-53.419-1.109-2.666-1.3-6.7,2.023-12.967l-4.891-2.473a56.215,56.215,0,1,0-15.064,29.791Zm-57.756-60.658a11.382,11.382,0,1,1-15.293,5.02,11.382,11.382,0,0,1,15.293-5.02Z" transform="translate(-52.24 -1078.101)" fill="#f9cd6b"/>
    <path id="Path_119" data-name="Path 119" d="M1326.946,1630.715a45.181,45.181,0,1,0-19.934-60.705A45.181,45.181,0,0,0,1326.946,1630.715Zm-7.26-41.54a11.382,11.382,0,1,1,15.3-5.023,11.381,11.381,0,0,1-15.3,5.023Z" transform="translate(-89.85 -1115.723)" fill="#fcdb92"/>
    <path id="Path_120" data-name="Path 120" d="M1074.9,1978.4s52.938,17.722,82.547-4.823a8.407,8.407,0,0,1,6.434-1.638l11.311,1.844a9.048,9.048,0,0,0,10.295-7,19.058,19.058,0,0,0,.27-8.133l-21.354-1.289.61-2.772s-9.44,2.309-9.63,9.694c0,0-22.139,14.5-62.523-8.008C1092.861,1956.271,1077.135,1968.583,1074.9,1978.4Z" transform="translate(85.841 -1432.232)" fill="url(#linear-gradient-26)"/>
    <path id="Path_121" data-name="Path 121" d="M2434.306,565.473a2.232,2.232,0,0,1-2.139-2.323c.1-2.393.093-4.83-.014-7.235a2.235,2.235,0,0,1,2.09-2.33h.043a2.234,2.234,0,0,1,2.33,2.133c.114,2.534.118,5.1.014,7.618a2.232,2.232,0,0,1-2.087,2.137,2.058,2.058,0,0,1-.236,0Zm-3.476-21.248c-.436-2.368-.973-4.741-1.6-7.053a2.235,2.235,0,1,1,4.31-1.175c.662,2.434,1.23,4.932,1.688,7.423a2.235,2.235,0,0,1-1.8,2.6,2.081,2.081,0,0,1-.263.032A2.23,2.23,0,0,1,2430.83,544.225Zm-5.474-18.149c-.948-2.205-2-4.4-3.138-6.515a2.235,2.235,0,0,1,3.939-2.11c1.2,2.232,2.307,4.537,3.3,6.865a2.233,2.233,0,1,1-4.1,1.76Zm-9.394-16.466c-1.418-1.942-2.949-3.843-4.517-5.653a2.234,2.234,0,1,1,3.369-2.936c1.66,1.908,3.26,3.911,4.764,5.953a2.234,2.234,0,1,1-3.607,2.636Zm-12.829-13.961c-1.815-1.574-3.714-3.094-5.655-4.515a2.235,2.235,0,1,1,2.636-3.607c2.042,1.5,4.047,3.094,5.951,4.75a2.235,2.235,0,0,1-2.931,3.371Zm-15.6-10.778c-2.117-1.134-4.311-2.2-6.513-3.149a2.234,2.234,0,1,1,1.774-4.1c2.321,1.005,4.628,2.119,6.854,3.317a2.233,2.233,0,0,1-2.114,3.934Zm-82.933-1.039a2.232,2.232,0,0,1,.919-3.022c2.23-1.189,4.537-2.3,6.872-3.292a2.235,2.235,0,0,1,1.756,4.108c-2.212.944-4.408,2-6.525,3.126a2.267,2.267,0,0,1-.907.259,2.235,2.235,0,0,1-2.114-1.168Zm65.336-6.007c-2.314-.635-4.685-1.18-7.046-1.618a2.233,2.233,0,0,1,.812-4.392c2.5.454,4.991,1.032,7.42,1.7a2.235,2.235,0,0,1-1.187,4.31ZM2322.5,476.2a2.235,2.235,0,0,1,1.574-2.738c2.438-.66,4.938-1.223,7.429-1.674a2.234,2.234,0,1,1,.8,4.4c-2.369.428-4.744.964-7.062,1.587a2.142,2.142,0,0,1-.454.073,2.232,2.232,0,0,1-2.275-1.633Zm28.718-1.316c-2.4-.1-4.83-.1-7.232,0a2.233,2.233,0,1,1-.238-4.46h.048c2.529-.107,5.093-.107,7.616,0a2.232,2.232,0,0,1,.047,4.46,2.117,2.117,0,0,1-.238.011Z" transform="translate(-864.686 -284.705)" fill="#aaa7d1"/>
    <path id="Path_122" data-name="Path 122" d="M2248.9,550.42a2.207,2.207,0,0,0,1.245-.479c.907-.717,1.833-1.425,2.77-2.107a2.234,2.234,0,1,0-2.635-3.61c-.984.72-1.964,1.466-2.912,2.219a2.232,2.232,0,0,0,1.531,3.977Z" transform="translate(-819.987 -341.49)" fill="#aaa7d1"/>
    <path id="Path_123" data-name="Path 123" d="M2105.364,809.278a2.237,2.237,0,0,0,2.08-2.017c.109-1.146.245-2.309.4-3.457a2.233,2.233,0,0,0-4.424-.608c-.168,1.207-.311,2.432-.426,3.63a2.234,2.234,0,0,0,2.012,2.437A2.348,2.348,0,0,0,2105.364,809.278Z" transform="translate(-709.012 -540.552)" fill="#aaa7d1"/>
    <path id="Path_124" data-name="Path 124" d="M2191.952,957.206a2.235,2.235,0,0,1-.063-4.467c2.348-.034,4.732-.168,7.11-.4a2.235,2.235,0,1,1,.433,4.446q-1.545.15-3.085.247C2194.883,957.127,2193.406,957.186,2191.952,957.206Zm16.8-4.084a2.235,2.235,0,0,1,1.659-2.688c2.3-.547,4.61-1.2,6.853-1.931a2.233,2.233,0,1,1,1.391,4.245c-2.361.774-4.789,1.459-7.214,2.042a2.4,2.4,0,0,1-.377.057,2.233,2.233,0,0,1-2.312-1.717Zm-28.952,3.428c-2.466-.3-4.952-.717-7.391-1.23a2.235,2.235,0,1,1,.907-4.372c2.316.488,4.678.88,7.019,1.168a2.235,2.235,0,0,1-.129,4.446A2.149,2.149,0,0,1,2179.8,956.551Zm47.162-9.4a2.232,2.232,0,0,1,1.027-2.985c2.126-1.039,4.231-2.178,6.259-3.4a2.233,2.233,0,0,1,2.291,3.834c-2.135,1.277-4.354,2.48-6.59,3.571a2.232,2.232,0,0,1-2.988-1.028ZM2160.718,952c-2.337-.837-4.671-1.788-6.937-2.824a2.235,2.235,0,1,1,1.858-4.063c2.153.984,4.369,1.888,6.579,2.684a2.233,2.233,0,1,1-1.508,4.2Zm-17.634-8.621c-2.1-1.334-4.172-2.77-6.155-4.272a2.233,2.233,0,0,1,2.7-3.56c1.883,1.425,3.856,2.79,5.848,4.059a2.233,2.233,0,0,1-2.391,3.773Zm-15.336-12.25c-1.762-1.76-3.471-3.614-5.079-5.51a2.235,2.235,0,0,1,3.4-2.888c1.525,1.8,3.149,3.562,4.825,5.236a2.235,2.235,0,0,1-3.156,3.162Zm-12.3-15.318c-1.336-2.1-2.6-4.285-3.75-6.49a2.234,2.234,0,1,1,3.961-2.069c1.094,2.094,2.291,4.168,3.56,6.166a2.23,2.23,0,0,1-.681,3.081,2.192,2.192,0,0,1-1.055.345,2.232,2.232,0,0,1-2.048-1.046Zm-8.634-17.652c-.837-2.339-1.588-4.746-2.226-7.153a2.232,2.232,0,1,1,4.311-1.134c.608,2.287,1.318,4.571,2.114,6.794a2.235,2.235,0,0,1-1.35,2.856,2.335,2.335,0,0,1-.613.127,2.234,2.234,0,0,1-2.25-1.5Zm-4.537-19.1c-.227-1.815-.4-3.664-.517-5.488q-.064-.989-.1-1.978a2.233,2.233,0,1,1,4.462-.186c.027.626.059,1.255.1,1.881.109,1.736.275,3.489.49,5.218a2.235,2.235,0,0,1-1.94,2.5l-.136.014a2.235,2.235,0,0,1-2.373-1.969Z" transform="translate(-707.985 -593.129)" fill="#aaa7d1"/>
    <path id="Path_125" data-name="Path 125" d="M2726.807,1149.708a2.211,2.211,0,0,0,1.255-.485c.943-.755,1.888-1.547,2.808-2.35a2.233,2.233,0,1,0-2.935-3.367c-.876.762-1.772,1.513-2.668,2.232a2.232,2.232,0,0,0,1.541,3.97Z" transform="translate(-1189.476 -804.725)" fill="#aaa7d1"/>
    <path id="Path_126" data-name="Path 126" d="M2323.7,664.151a1.05,1.05,0,0,0,0-1.214l-7.357-10.356a55.354,55.354,0,0,0,4.065-17.468l11.166-6.046a1.048,1.048,0,0,0,.531-1.089l-2.5-15.034a1.043,1.043,0,0,0-.855-.86l-12.518-2.119a55.381,55.381,0,0,0-9.485-15.218l3.63-12.178a1.047,1.047,0,0,0-.395-1.148l-12.394-8.868a1.046,1.046,0,0,0-1.211,0l-10.359,7.359a55.325,55.325,0,0,0-17.468-4.065l-6.048-11.164a1.041,1.041,0,0,0-1.089-.533l-15.034,2.5a1.038,1.038,0,0,0-.857.855l-2.121,12.518a55.336,55.336,0,0,0-15.216,9.485l-12.18-3.63a1.042,1.042,0,0,0-1.146.395L2206,598.663a1.042,1.042,0,0,0,0,1.211l7.359,10.358A55.25,55.25,0,0,0,2209.3,627.7l-11.159,6.05a1.047,1.047,0,0,0-.534,1.089l2.5,15.034a1.044,1.044,0,0,0,.858.857l12.518,2.121a55.331,55.331,0,0,0,9.485,15.218l-3.63,12.178a1.041,1.041,0,0,0,.392,1.134l12.4,8.868a1.044,1.044,0,0,0,1.212,0l10.356-7.357a55.426,55.426,0,0,0,17.468,4.065l6.046,11.164a1.049,1.049,0,0,0,1.089.533l15.036-2.5a1.048,1.048,0,0,0,.858-.858l2.119-12.518a55.323,55.323,0,0,0,15.218-9.485l12.178,3.63a1.044,1.044,0,0,0,1.148-.392Z" transform="translate(-782.154 -357.217)" fill="#918cd3"/>
    <path id="Path_127" data-name="Path 127" d="M2440.676,823.779a15.308,15.308,0,1,1,2.25.023A15.309,15.309,0,0,1,2440.676,823.779Zm-6.32-24.231a11.747,11.747,0,1,0,8.561-2.741,12.08,12.08,0,0,0-1.742-.016A11.664,11.664,0,0,0,2434.356,799.549Z" transform="translate(-959.247 -534.327)" fill="#aaa7d1"/>
    <path id="Path_128" data-name="Path 128" d="M2366.91,768.939a38.394,38.394,0,0,0,3.845-.44h0q.6-.1,1.207-.227a37.758,37.758,0,0,0,5.805-1.642l.075-.03.227-.082.424-.166a.908.908,0,0,0,.563-.885.982.982,0,0,0-.062-.275.894.894,0,0,0-1.159-.5,35.846,35.846,0,1,1,20.157-20.206.894.894,0,1,0,1.663.656,37.677,37.677,0,1,0-72.668-11.488,38.742,38.742,0,0,0,.44,3.857,37.679,37.679,0,0,0,39.474,31.438Z" transform="translate(-882.142 -457.364)" fill="#aaa7d1"/>
    <path id="Path_129" data-name="Path 129" d="M3225.021,1106.361a1.378,1.378,0,0,0,1.257-1.073c.259-1.134.485-2.307.68-3.464a1.38,1.38,0,1,0-2.722-.454c-.179,1.1-.4,2.214-.642,3.305a1.379,1.379,0,0,0,1.042,1.649A1.36,1.36,0,0,0,3225.021,1106.361Z" transform="translate(-1575.373 -771.681)" fill="#aaa7d1"/>
    <path id="Path_130" data-name="Path 130" d="M2985.665,865.324a1.377,1.377,0,0,1-1.325-1.432,57.2,57.2,0,0,0-.075-5.787c-.025-.406-.054-.812-.091-1.218a1.38,1.38,0,0,1,1.259-1.491,1.425,1.425,0,0,1,1.491,1.259q.054.64.095,1.275A60.188,60.188,0,0,1,2987.1,864a1.38,1.38,0,0,1-1.291,1.323C2985.76,865.324,2985.713,865.327,2985.665,865.324Zm-2.5-15.37a57.3,57.3,0,0,0-1.851-6.754,1.38,1.38,0,0,1,2.611-.891,59.649,59.649,0,0,1,1.939,7.08,1.38,1.38,0,0,1-1.066,1.633,1.476,1.476,0,0,1-.2.027,1.379,1.379,0,0,1-1.445-1.1Zm-4.526-13.228a56.829,56.829,0,0,0-3.467-6.1,1.38,1.38,0,0,1,2.312-1.506,59.712,59.712,0,0,1,3.63,6.391,1.38,1.38,0,0,1-2.479,1.211ZM2971,825.011a56.678,56.678,0,0,0-4.841-5.061,1.38,1.38,0,1,1,1.872-2.028,60.013,60.013,0,0,1,5.077,5.309,1.38,1.38,0,1,1-2.108,1.781Zm-10.268-9.494a57.337,57.337,0,0,0-5.926-3.734,1.38,1.38,0,0,1,1.327-2.421,60.925,60.925,0,0,1,6.209,3.913,1.38,1.38,0,0,1-1.611,2.241Zm-12.261-6.713a56.79,56.79,0,0,0-6.649-2.176,1.379,1.379,0,1,1,.692-2.67,59.55,59.55,0,0,1,6.971,2.28,1.38,1.38,0,1,1-1.019,2.566Zm-13.526-3.51a56.464,56.464,0,0,0-6.988-.476,1.379,1.379,0,0,1,.018-2.759,59.784,59.784,0,0,1,7.328.5,1.379,1.379,0,0,1-.091,2.743,1.334,1.334,0,0,1-.277-.007Zm-22.543.138a1.377,1.377,0,0,1,1.012-1.665,59.745,59.745,0,0,1,6.271-1.177c.322-.045.639-.084.961-.123a1.38,1.38,0,0,1,.316,2.743c-.3.034-.6.073-.908.113a57.709,57.709,0,0,0-5.989,1.123,1.262,1.262,0,0,1-.24.036,1.375,1.375,0,0,1-1.432-1.05Z" transform="translate(-1334.777 -541.165)" fill="#aaa7d1"/>
    <path id="Path_131" data-name="Path 131" d="M2806.288,1219.6a60.363,60.363,0,0,1-7.221-.073,1.379,1.379,0,0,1,.2-2.752,57.169,57.169,0,0,0,6.887.068,1.379,1.379,0,1,1,.157,2.754Zm5.588-1.924a1.379,1.379,0,0,1,1.134-1.588,57.961,57.961,0,0,0,6.71-1.574,1.38,1.38,0,1,1,.792,2.643,60.228,60.228,0,0,1-7.033,1.649,1.126,1.126,0,0,1-.147.018,1.379,1.379,0,0,1-1.456-1.148Zm-19.964.907a59.288,59.288,0,0,1-6.992-1.815,1.379,1.379,0,0,1,.853-2.622,57.237,57.237,0,0,0,6.67,1.733,1.379,1.379,0,0,1-.177,2.722,1.429,1.429,0,0,1-.363-.025Zm33.575-4.625a1.384,1.384,0,0,1,.71-1.815,56.973,56.973,0,0,0,6.125-3.146,1.379,1.379,0,1,1,1.407,2.373,59.223,59.223,0,0,1-6.429,3.3,1.447,1.447,0,0,1-.468.113,1.386,1.386,0,0,1-1.363-.833Zm-47.273.159a60.027,60.027,0,0,1-6.352-3.446,1.38,1.38,0,1,1,1.461-2.341,56.477,56.477,0,0,0,6.055,3.285,1.379,1.379,0,0,1-.5,2.627,1.361,1.361,0,0,1-.685-.132Zm-12.237-7.627a60.005,60.005,0,0,1-5.343-4.864,1.379,1.379,0,0,1,1.976-1.924,57.394,57.394,0,0,0,5.1,4.639,1.38,1.38,0,0,1-.781,2.45,1.362,1.362,0,0,1-.969-.309Zm-10.061-10.338a59.808,59.808,0,0,1-4.02-6.005,1.38,1.38,0,1,1,2.382-1.393,56.369,56.369,0,0,0,3.834,5.726,1.377,1.377,0,0,1-.261,1.933,1.36,1.36,0,0,1-.749.279,1.379,1.379,0,0,1-1.2-.547Z" transform="translate(-1210.565 -839.602)" fill="#aaa7d1"/>
    <path id="Path_132" data-name="Path 132" d="M3131.442,1257.074a1.362,1.362,0,0,0,.756-.286c.934-.721,1.851-1.474,2.722-2.237a1.38,1.38,0,1,0-1.815-2.08c-.835.728-1.708,1.447-2.6,2.137a1.377,1.377,0,0,0,.932,2.466Z" transform="translate(-1503.013 -889.132)" fill="#aaa7d1"/>
    <path id="Path_133" data-name="Path 133" d="M2865.018,931.2a.7.7,0,0,0,0-.812l-4.923-6.93a37.017,37.017,0,0,0,2.722-11.686l7.47-4.047a.7.7,0,0,0,.356-.728l-1.668-10.061a.7.7,0,0,0-.572-.574l-8.378-1.418a37,37,0,0,0-6.352-10.184l2.423-8.149a.7.7,0,0,0-.263-.767l-8.294-5.935a.694.694,0,0,0-.81,0l-6.93,4.923a37.012,37.012,0,0,0-11.688-2.722l-4.045-7.47a.7.7,0,0,0-.728-.356l-10.061,1.667a.7.7,0,0,0-.574.572l-1.42,8.378a37.024,37.024,0,0,0-10.182,6.352l-8.137-2.425a.7.7,0,0,0-.767.263l-5.935,8.294a.7.7,0,0,0,0,.81l4.925,6.931a37.079,37.079,0,0,0-2.722,11.686l-7.47,4.047a.7.7,0,0,0-.356.728l1.67,10.061a.694.694,0,0,0,.572.574l8.378,1.418a37.052,37.052,0,0,0,6.352,10.184l-2.423,8.149a.7.7,0,0,0,.263.767l8.294,5.935a.7.7,0,0,0,.812,0l6.931-4.925a37.009,37.009,0,0,0,11.686,2.722l4.047,7.473a.7.7,0,0,0,.728.356l10.061-1.67a.7.7,0,0,0,.574-.572l1.418-8.378a37.039,37.039,0,0,0,10.184-6.352l8.149,2.425a.7.7,0,0,0,.767-.263Z" transform="translate(-1232.928 -589.268)" fill="#918cd3"/>
    <path id="Path_134" data-name="Path 134" d="M2942.81,1037.888a10.385,10.385,0,1,1,1.545.016A10.665,10.665,0,0,1,2942.81,1037.888Zm-6.788-11.034a7.679,7.679,0,0,0,7.014,8.287h0a7.677,7.677,0,1,0,1.273-15.3,7.814,7.814,0,0,0-1.134,0A7.688,7.688,0,0,0,2936.022,1026.854Z" transform="translate(-1350.964 -707.463)" fill="#aaa7d1"/>
    <path id="Path_135" data-name="Path 135" d="M2891.351,999.342q1.307-.084,2.625-.3a26.128,26.128,0,0,0,5.111-1.388l.227-.086a1.375,1.375,0,1,0-1.014-2.557,23.344,23.344,0,0,1-4.764,1.318h0l-.271.043a22.993,22.993,0,0,1-11.324-1.064,23.287,23.287,0,0,1-5.551-2.881l-.043-.03-.129-.091a23.228,23.228,0,1,1,36.432-22.686,22.747,22.747,0,0,1,.267,2.343,23.113,23.113,0,0,1-1.563,9.959,1.362,1.362,0,0,0-.093.594,1.379,1.379,0,0,0,2.661.417,25.994,25.994,0,1,0-22.571,16.409Z" transform="translate(-1297.182 -653.517)" fill="#aaa7d1"/>
  </g>
</svg>
